<svg width="44" height="44" viewBox="0 0 44 44" fill="none" xmlns="http://www.w3.org/2000/svg">
<rect width="44" height="44" rx="4" fill="url(#paint0_linear_428_1472)"/>
<path d="M15.8656 31.532C15.6538 31.524 15.4189 31.5812 15.2548 31.6028C13.182 31.8732 11.11 32.1491 9.0389 32.4302C8.96615 32.4399 8.89328 32.4467 8.82029 32.4505C8.80638 32.4513 8.79957 32.4447 8.79981 32.4309C8.81219 31.8943 8.8233 31.5254 8.83315 31.3241C8.96123 28.6748 9.05028 26.023 9.18742 23.3743C9.27268 21.7302 9.33635 20.1007 9.41553 18.4386C9.43851 17.9533 9.42349 17.4614 9.37045 16.9626C9.20271 15.3866 9.01882 13.5725 8.81876 11.5202C8.80689 11.3989 8.80096 11.301 8.80096 11.2265C8.80096 11.2129 8.80778 11.2062 8.82142 11.2062C11.9226 11.2089 14.2425 11.2092 15.7811 11.2069C15.8185 11.2069 15.8584 11.2018 15.9008 11.1915C15.9145 11.1882 15.9213 11.1796 15.9213 11.1655L15.9274 8.81805C15.9274 8.80626 15.9334 8.80036 15.9455 8.80036L28.0223 8.79999C28.0334 8.79999 28.0387 8.80551 28.0383 8.81653C28.0074 9.60642 27.9151 10.3986 27.8442 11.1904C27.8439 11.1926 27.8444 11.1948 27.845 11.1969C27.8457 11.199 27.8468 11.2009 27.8484 11.2025C27.8499 11.2042 27.8517 11.2054 27.8537 11.2063C27.8557 11.2072 27.8579 11.2077 27.8601 11.2076H35.1365C35.1447 11.2076 35.1529 11.2094 35.1605 11.2128C35.168 11.2161 35.1747 11.2211 35.1802 11.2272C35.1856 11.2334 35.1896 11.2407 35.192 11.2485C35.1942 11.2564 35.1949 11.2646 35.1938 11.2727C34.93 13.1297 34.7286 14.9988 34.4974 16.8599C34.4734 17.0517 34.467 17.2767 34.4759 17.4734C34.5038 18.1081 34.5351 18.7426 34.5697 19.377C34.7181 22.1038 34.8603 24.8309 34.9968 27.5585C35.0454 28.5215 35.1112 29.4835 35.1521 30.4469C35.162 30.6759 35.1778 30.9076 35.1995 31.1415C35.2004 31.1509 35.1991 31.1604 35.196 31.1692C35.1927 31.178 35.1878 31.1859 35.1811 31.1927C35.1745 31.1993 35.1663 31.2044 35.1576 31.2077C35.1487 31.211 35.1392 31.2123 35.1299 31.2114C34.9469 31.1971 34.755 31.2011 34.5824 31.1879C34.3028 31.1665 34.0231 31.1498 33.7429 31.1377C31.9004 31.0587 30.1192 30.9415 28.3087 30.8482C26.8986 30.776 25.4888 30.7026 24.0791 30.6282C23.9924 30.6236 23.803 30.6207 23.5107 30.6194C23.4953 30.6192 23.4876 30.6269 23.4876 30.6425L23.4736 33.7749C23.4736 33.7821 23.4711 33.7889 23.4664 33.7947C23.4618 33.8002 23.4553 33.8037 23.4482 33.805L15.9463 35.1994C15.9322 35.202 15.9248 35.1963 15.9243 35.182C15.922 35.1408 15.9217 35.0757 15.9232 34.9864C15.9333 34.3548 15.9317 33.2724 15.9183 31.7392C15.9175 31.6772 15.9031 31.6147 15.8929 31.5553C15.8901 31.5403 15.881 31.5324 15.8656 31.532ZM22.3513 15.2038C22.3525 15.196 22.3565 15.1889 22.3626 15.1838C22.3686 15.1787 22.3763 15.1759 22.3842 15.1759H26.2869C26.2918 15.1759 26.2965 15.174 26.3001 15.1705C26.3038 15.1671 26.3061 15.1623 26.3066 15.1571L26.7906 9.99085C26.7908 9.98652 26.7904 9.98218 26.789 9.97807C26.7875 9.97398 26.7855 9.97021 26.7826 9.96702C26.7797 9.96383 26.7762 9.9613 26.7722 9.95957C26.7682 9.95785 26.764 9.95697 26.7598 9.95699C23.5967 9.95675 20.4344 9.95686 17.2728 9.95737C17.2183 9.95737 17.155 9.96628 17.083 9.98407C17.0704 9.98733 17.0632 9.99549 17.0614 10.0085C17.0493 10.1001 17.0432 10.1612 17.0432 10.1921C17.0432 17.9985 17.0432 25.8049 17.0432 33.6114C17.0432 33.6609 17.0569 33.7181 17.066 33.7667C17.0671 33.7729 17.0696 33.7788 17.0731 33.7843C17.0766 33.7896 17.0811 33.7942 17.0864 33.7977C17.0917 33.8015 17.0976 33.8039 17.1038 33.8052C17.1101 33.8065 17.1165 33.8065 17.1228 33.8054L22.305 32.8399C22.321 32.8368 22.3289 32.8273 22.3289 32.8113V24.128C22.3289 24.1106 22.3359 24.0939 22.3484 24.0815C22.3608 24.0692 22.3776 24.0622 22.3952 24.0622L25.6349 24.0618C25.6788 24.0618 25.7007 24.0402 25.7004 23.9968C25.6966 22.6295 25.747 21.263 25.7739 19.8965C25.7785 19.659 25.7763 19.4215 25.7675 19.1841C25.7637 19.0773 25.7754 18.9945 25.642 18.9986C24.6008 19.0307 23.5596 19.0325 22.5184 19.0039C22.4643 19.0024 22.4133 18.9963 22.3653 18.9855C22.3543 18.983 22.3446 18.9768 22.3378 18.9679C22.3309 18.9589 22.3274 18.9479 22.3278 18.9366C22.3596 18.1407 22.335 17.3365 22.33 16.5398C22.3282 16.2965 22.3494 15.9195 22.3312 15.6085C22.3229 15.4686 22.3296 15.3337 22.3513 15.2038Z" fill="white"/>
<defs>
<linearGradient id="paint0_linear_428_1472" x1="22" y1="0" x2="41.25" y2="44" gradientUnits="userSpaceOnUse">
<stop stop-color="#198FD9"/>
<stop offset="1" stop-color="#6EE1FC"/>
</linearGradient>
</defs>
</svg>
