<svg width="60" height="60" viewBox="0 0 60 60" fill="none" xmlns="http://www.w3.org/2000/svg">
<path d="M58.125 30C58.125 32.4 55.1766 34.3781 54.5859 36.5906C53.9766 38.8781 55.5187 42.0656 54.3609 44.0672C53.1844 46.1016 49.6453 46.3453 47.9953 47.9953C46.3453 49.6453 46.1016 53.1844 44.0672 54.3609C42.0656 55.5187 38.8781 53.9766 36.5906 54.5859C34.3781 55.1766 32.4 58.125 30 58.125C27.6 58.125 25.6219 55.1766 23.4094 54.5859C21.1219 53.9766 17.9344 55.5187 15.9328 54.3609C13.8984 53.1844 13.6547 49.6453 12.0047 47.9953C10.3547 46.3453 6.81562 46.1016 5.63906 44.0672C4.48125 42.0656 6.02344 38.8781 5.41406 36.5906C4.82344 34.3781 1.875 32.4 1.875 30C1.875 27.6 4.82344 25.6219 5.41406 23.4094C6.02344 21.1219 4.48125 17.9344 5.63906 15.9328C6.81562 13.8984 10.3547 13.6547 12.0047 12.0047C13.6547 10.3547 13.8984 6.81562 15.9328 5.63906C17.9344 4.48125 21.1219 6.02344 23.4094 5.41406C25.6219 4.82344 27.6 1.875 30 1.875C32.4 1.875 34.3781 4.82344 36.5906 5.41406C38.8781 6.02344 42.0656 4.48125 44.0672 5.63906C46.1016 6.81562 46.3453 10.3547 47.9953 12.0047C49.6453 13.6547 53.1844 13.8984 54.3609 15.9328C55.5187 17.9344 53.9766 21.1219 54.5859 23.4094C55.1766 25.6219 58.125 27.6 58.125 30Z" fill="#00FC70"/>
<path d="M38.1273 21.6188L27.4211 32.325L21.8711 26.7797C20.6664 25.575 18.7117 25.575 17.507 26.7797C16.3023 27.9844 16.3023 29.9391 17.507 31.1438L25.293 38.9297C26.4648 40.1016 28.368 40.1016 29.5398 38.9297L42.4867 25.9828C43.6914 24.7781 43.6914 22.8234 42.4867 21.6188C41.282 20.4141 39.332 20.4141 38.1273 21.6188Z" fill="#000E06"/>
</svg>
