<svg width="24" height="24" viewBox="0 0 24 24" fill="none" xmlns="http://www.w3.org/2000/svg">
<rect width="24" height="24" rx="4" fill="url(#paint0_linear_215_2803)"/>
<g clip-path="url(#clip0_215_2803)">
<path d="M8.65387 17.1992C8.53834 17.1949 8.41021 17.2261 8.32071 17.2379C7.19007 17.3854 6.0599 17.5358 4.93022 17.6892C4.89054 17.6945 4.85079 17.6982 4.81098 17.7002C4.80339 17.7007 4.79968 17.6971 4.79981 17.6896C4.80656 17.3969 4.81262 17.1956 4.818 17.0858C4.88785 15.6408 4.93643 14.1944 5.01123 12.7496C5.05774 11.8528 5.09247 10.964 5.13565 10.0574C5.14819 9.79273 5.14 9.52437 5.11107 9.25232C5.01957 8.39267 4.91927 7.40315 4.81014 6.28375C4.80367 6.21755 4.80044 6.16415 4.80044 6.12352C4.80044 6.11614 4.80415 6.11244 4.81159 6.11244C6.50316 6.11394 7.76855 6.11409 8.60779 6.11285C8.62818 6.11285 8.64995 6.11005 8.6731 6.10444C8.68054 6.10266 8.68425 6.09795 8.68425 6.09029L8.68756 4.80984C8.68756 4.80341 8.69086 4.80019 8.69748 4.80019L15.2848 4.79999C15.2909 4.79999 15.2938 4.803 15.2935 4.80901C15.2767 5.23986 15.2264 5.67194 15.1876 6.10383C15.1875 6.10503 15.1878 6.10624 15.1881 6.10738C15.1885 6.10852 15.1891 6.10956 15.1899 6.11046C15.1908 6.11135 15.1917 6.11206 15.1928 6.11254C15.1939 6.11302 15.1951 6.11327 15.1963 6.11326H19.1653C19.1698 6.11325 19.1742 6.11419 19.1784 6.11604C19.1825 6.11788 19.1861 6.12058 19.1891 6.12394C19.192 6.12731 19.1942 6.13127 19.1955 6.13554C19.1968 6.13983 19.1971 6.14434 19.1965 6.14875C19.0526 7.16166 18.9428 8.18114 18.8167 9.19631C18.8036 9.30094 18.8001 9.42363 18.8049 9.53093C18.8202 9.87712 18.8372 10.2232 18.8561 10.5693C18.9371 12.0566 19.0146 13.5441 19.0891 15.0319C19.1156 15.5572 19.1515 16.0819 19.1738 16.6074C19.1792 16.7323 19.1878 16.8587 19.1997 16.9862C19.2001 16.9914 19.1994 16.9966 19.1977 17.0014C19.1959 17.0062 19.1932 17.0105 19.1896 17.0142C19.186 17.0178 19.1815 17.0206 19.1768 17.0224C19.1719 17.0242 19.1667 17.0249 19.1617 17.0244C19.0618 17.0166 18.9572 17.0188 18.863 17.0116C18.7105 16.9999 18.558 16.9908 18.4051 16.9842C17.4001 16.9411 16.4286 16.8772 15.441 16.8263C14.6719 16.7869 13.9029 16.7468 13.134 16.7063C13.0867 16.7038 12.9833 16.7022 12.8239 16.7015C12.8155 16.7014 12.8113 16.7056 12.8113 16.7141L12.8037 18.4226C12.8037 18.4266 12.8023 18.4303 12.7998 18.4334C12.7972 18.4364 12.7937 18.4384 12.7898 18.4391L8.69789 19.1996C8.69018 19.2011 8.68618 19.198 8.68591 19.1902C8.68467 19.1677 8.68446 19.1322 8.68528 19.0835C8.6908 18.739 8.68991 18.1486 8.6826 17.3123C8.68219 17.2784 8.67433 17.2444 8.66875 17.212C8.66724 17.2038 8.66228 17.1995 8.65387 17.1992ZM12.1915 8.29295C12.1922 8.28872 12.1944 8.28486 12.1977 8.28208C12.201 8.2793 12.2052 8.27777 12.2095 8.27777H14.3382C14.3409 8.27777 14.3435 8.27672 14.3454 8.27483C14.3474 8.27294 14.3487 8.27033 14.349 8.26751L14.613 5.44955C14.6131 5.44718 14.6128 5.44482 14.6121 5.44258C14.6113 5.44034 14.6102 5.43829 14.6086 5.43655C14.607 5.43481 14.6051 5.43343 14.6029 5.43248C14.6007 5.43155 14.5984 5.43107 14.5961 5.43108C12.8709 5.43095 11.1459 5.43101 9.42146 5.43128C9.3917 5.43128 9.35718 5.43614 9.31791 5.44585C9.31103 5.44763 9.3071 5.45208 9.30614 5.45918C9.29952 5.50912 9.29622 5.54249 9.29622 5.55931C9.29622 9.81735 9.29622 14.0754 9.29622 18.3335C9.29622 18.3605 9.30366 18.3917 9.30862 18.4182C9.30926 18.4216 9.31058 18.4248 9.31249 18.4278C9.3144 18.4307 9.31687 18.4332 9.31975 18.4351C9.32263 18.4372 9.32586 18.4385 9.32928 18.4392C9.33269 18.4399 9.3362 18.4399 9.33962 18.4393L12.1663 17.9126C12.175 17.911 12.1793 17.9058 12.1793 17.897V13.1607C12.1793 13.1512 12.1831 13.1421 12.1899 13.1354C12.1967 13.1286 12.2059 13.1248 12.2155 13.1248L13.9826 13.1246C14.0065 13.1246 14.0185 13.1128 14.0183 13.0892C14.0162 12.3434 14.0437 11.598 14.0584 10.8526C14.0609 10.7231 14.0597 10.5936 14.0549 10.464C14.0528 10.4058 14.0592 10.3606 13.9865 10.3629C13.4185 10.3804 12.8506 10.3814 12.2827 10.3658C12.2532 10.3649 12.2253 10.3616 12.1992 10.3557C12.1932 10.3544 12.1879 10.351 12.1841 10.3461C12.1804 10.3412 12.1785 10.3352 12.1787 10.329C12.1961 9.89491 12.1826 9.45626 12.1799 9.02171C12.1789 8.88897 12.1905 8.68339 12.1806 8.51372C12.176 8.4374 12.1797 8.36381 12.1915 8.29295Z" fill="white"/>
</g>
<defs>
<linearGradient id="paint0_linear_215_2803" x1="12" y1="0" x2="22.5" y2="24" gradientUnits="userSpaceOnUse">
<stop stop-color="#198FD9"/>
<stop offset="1" stop-color="#6EE1FC"/>
</linearGradient>
<clipPath id="clip0_215_2803">
<rect width="16" height="16" fill="white" transform="translate(4 4)"/>
</clipPath>
</defs>
</svg>
