<svg width="24" height="24" viewBox="0 0 24 24" fill="none" xmlns="http://www.w3.org/2000/svg">
<rect width="24" height="24" rx="4" fill="url(#paint0_linear_215_2807)"/>
<g clip-path="url(#clip0_215_2807)">
<path d="M11.6737 15.7177H19.1998C19.1391 15.8002 19.0898 15.8667 19.0393 15.9332C18.1587 17.0913 17.277 18.2505 16.3964 19.4097C16.3574 19.4613 16.3173 19.4785 16.2542 19.4785C12.6769 19.4773 9.09959 19.4773 5.52111 19.4773H5.42242C5.44425 19.4407 5.45914 19.4142 5.47524 19.3879C6.06106 18.4913 6.647 17.5958 7.23063 16.698C7.26123 16.6479 7.27787 16.5905 7.27882 16.5317C7.28101 13.4773 7.28101 10.4228 7.27882 7.36941C7.27882 7.30756 7.25698 7.23875 7.22489 7.18593C6.68372 6.29512 6.1356 5.40651 5.5887 4.5179C5.57491 4.49496 5.56235 4.47203 5.54283 4.43872H11.6737V15.7177ZM10.4113 16.9663V5.68734H7.78327C7.8073 5.7276 7.82462 5.75846 7.84292 5.78823C8.06081 6.14141 8.27966 6.49458 8.49413 6.84886C8.51938 6.89009 8.53549 6.94279 8.53549 6.9911C8.53768 10.3012 8.53768 13.6114 8.53549 16.9216C8.53549 16.9686 8.51939 17.0225 8.49303 17.0627C8.26368 17.4192 8.03092 17.7735 7.79937 18.129C7.78327 18.1541 7.76948 18.1817 7.74545 18.2229H15.626C15.681 18.2229 15.7269 18.2229 15.767 18.1691C16.0512 17.7884 16.3402 17.4112 16.628 17.0329C16.6418 17.0157 16.651 16.9949 16.6693 16.9675C14.5791 16.9663 12.5037 16.9663 10.4113 16.9663Z" fill="#000E06"/>
<path d="M18.2951 14.4565H16.9984C17.5144 12.865 17.4192 11.324 16.6051 9.8586C15.7945 8.39673 14.5469 7.4886 12.9281 7.07821V5.79848C14.7797 6.17788 16.2577 7.12054 17.34 8.66268C18.7022 10.6015 18.787 12.8753 18.2951 14.4565ZM6.02326 8.64218V16.5031C4.51211 14.4667 4.21969 11.1944 6.02326 8.64218Z" fill="#000E06"/>
</g>
<defs>
<linearGradient id="paint0_linear_215_2807" x1="12" y1="0" x2="22.5" y2="24" gradientUnits="userSpaceOnUse">
<stop stop-color="#D48F16"/>
<stop offset="1" stop-color="#FEB637"/>
</linearGradient>
<clipPath id="clip0_215_2807">
<rect width="16" height="16" fill="white" transform="translate(4 4)"/>
</clipPath>
</defs>
</svg>
