<svg width="44" height="44" viewBox="0 0 44 44" fill="none" xmlns="http://www.w3.org/2000/svg">
<rect width="44" height="44" rx="4" fill="url(#paint0_linear_428_3357)"/>
<path d="M21.4022 28.8157H35.2001C35.0887 28.9671 34.9983 29.089 34.9057 29.2109C33.2914 31.3341 31.675 33.4593 30.0604 35.5845C29.9891 35.6791 29.9155 35.7106 29.7999 35.7106C23.2413 35.7084 16.683 35.7084 10.1224 35.7084H9.9415C9.98154 35.6413 10.0088 35.5927 10.0383 35.5444C11.1124 33.9008 12.1866 32.2589 13.2566 30.613C13.3127 30.5211 13.3432 30.4158 13.3449 30.3082C13.3489 24.7084 13.3489 19.1085 13.3449 13.5106C13.3449 13.3972 13.3049 13.271 13.246 13.1742C12.2539 11.541 11.249 9.91191 10.2463 8.28279C10.2211 8.24074 10.198 8.19869 10.1623 8.13763H21.4022V28.8157ZM19.0878 31.1048V10.4268H14.2697C14.3138 10.5006 14.3455 10.5572 14.3791 10.6117C14.7786 11.2592 15.1798 11.9067 15.573 12.5562C15.6193 12.6318 15.6488 12.7284 15.6488 12.817C15.6528 18.8855 15.6528 24.9542 15.6488 31.023C15.6488 31.1091 15.6193 31.2079 15.571 31.2815C15.1505 31.9353 14.7238 32.5848 14.2993 33.2365C14.2697 33.2826 14.2445 33.3331 14.2004 33.4087H28.648C28.7489 33.4087 28.833 33.4087 28.9066 33.3101C29.4277 32.6121 29.9575 31.9205 30.4851 31.2269C30.5104 31.1954 30.5272 31.1574 30.5607 31.1071C26.7288 31.1048 22.9239 31.1048 19.0878 31.1048Z" fill="#000E06"/>
<path d="M33.5415 26.5035H31.1642C32.1101 23.5859 31.9356 20.7607 30.4431 18.0741C28.9569 15.394 26.6698 13.7291 23.7019 12.9767V10.6305C27.0965 11.3261 29.8062 13.0543 31.7904 15.8816C34.2878 19.4362 34.4432 23.6047 33.5415 26.5035ZM11.0431 15.844V30.2556C8.27261 26.5223 7.7365 20.5231 11.0431 15.844Z" fill="#000E06"/>
<defs>
<linearGradient id="paint0_linear_428_3357" x1="22" y1="0" x2="41.25" y2="44" gradientUnits="userSpaceOnUse">
<stop stop-color="#D48F16"/>
<stop offset="1" stop-color="#FEB637"/>
</linearGradient>
</defs>
</svg>
