<svg width="28" height="28" viewBox="0 0 28 28" fill="none" xmlns="http://www.w3.org/2000/svg">
<g clip-path="url(#clip0_515_238)">
<mask id="mask0_515_238" style="mask-type:luminance" maskUnits="userSpaceOnUse" x="0" y="0" width="28" height="28">
<path d="M0 0H28V28H0V0Z" fill="white"/>
</mask>
<g mask="url(#mask0_515_238)">
<path d="M14.5621 26.7764C12.9941 27.0069 9.2626 27.0405 6.975 26.0997C8.8062 27.0723 10.0503 27.8367 13.163 27.9981C16.0293 27.9981 19.0691 27.6407 22.0633 25.5005C25.8059 22.8256 27.1593 19.2593 27.7286 16.7151C28.297 14.1717 27.7351 8.73693 24.4918 5.72413C21.2485 2.71133 17.5133 1.974 12.9931 2.70387C9.43247 3.2788 6.54473 5.824 5.76073 7.1932C4.49513 9.1728 2.70967 14.1344 5.3846 18.1683C8.05954 22.2021 12.7243 22.0724 14.7226 21.504C15.5299 21.3808 15.5999 21.3211 14.6003 21.3808C11.7873 21.5497 10.1035 20.7891 8.767 19.4059C7.31567 17.9051 5.46767 13.9328 6.99834 10.2975C8.529 6.66213 11.8405 4.75627 15.4375 4.64147C18.315 4.54813 20.6409 5.97053 21.5555 6.66213C22.8174 7.616 24.615 9.35013 25.2917 13.0956C26.1373 17.7763 24.0634 21.1167 21.7945 23.4407C19.8811 25.4007 16.2757 26.4404 14.5611 26.7764" fill="#477DB2"/>
<path d="M13.3597 1.21978C14.9277 0.989247 18.6582 0.955647 20.9449 1.89645C19.1155 0.923914 17.8714 0.15858 14.7587 -0.00195312C11.8925 -0.00195312 8.85258 0.356447 5.85845 2.49565C2.11485 5.17058 0.761517 8.73685 0.192184 11.2811C-0.375283 13.8254 0.18565 19.2593 3.42992 22.2721C6.67418 25.2848 10.4085 26.0222 14.9286 25.2923C18.4893 24.7174 21.377 22.1722 22.161 20.803C23.4266 18.8234 25.2121 13.8618 22.5371 9.82791C19.8622 5.79498 15.1974 5.92378 13.1991 6.49218C12.3918 6.61538 12.3218 6.67511 13.3214 6.61538C16.1345 6.44645 17.8182 7.20711 19.1547 8.59125C20.6051 10.0911 22.4531 14.0634 20.9234 17.6987C19.3937 21.334 16.0813 23.2399 12.4842 23.3547C9.60672 23.448 7.28085 22.0256 6.36618 21.334C5.10432 20.3802 3.30672 18.646 2.63005 14.9006C1.78445 10.2199 3.85832 6.87951 6.12725 4.55551C8.04058 2.59551 11.6461 1.55578 13.3606 1.21978" fill="#5A9FE1"/>
</g>
</g>
<defs>
<clipPath id="clip0_515_238">
<rect width="28" height="28" fill="white"/>
</clipPath>
</defs>
</svg>
