<svg width="150" height="150" viewBox="0 0 150 150" fill="none" xmlns="http://www.w3.org/2000/svg">
<path d="M101.253 51.6024C101.666 51.1898 102.186 50.8852 102.767 50.7337L115.026 47.54C115.562 47.4007 116.12 47.5147 116.558 47.8531C116.996 48.192 117.247 48.7034 117.247 49.257L117.247 55.0167L99.8558 55.0168L100.399 53.063C100.555 52.503 100.854 52.002 101.253 51.6024ZM117.922 55.6917L117.922 49.2568C117.922 48.493 117.575 47.7867 116.971 47.3192C116.366 46.8518 115.595 46.6946 114.856 46.8871L102.597 50.0808C101.221 50.4392 100.13 51.5126 99.7487 52.882L98.9677 55.6918L117.922 55.6917Z" fill="#00FC70" stroke="#00FC70" stroke-width="1.3" stroke-miterlimit="2" stroke-linecap="square" stroke-linejoin="round"/>
<path d="M123.209 104.409C123.616 104.001 123.912 103.493 124.068 102.922C124.303 102.056 124.186 101.15 123.738 100.372L115.9 86.7586L115.88 86.7351C113.405 83.8241 114.184 80.9077 114.292 80.5521C116.827 76.7553 123.219 76.1119 126.81 76.0666C128.592 76.0445 130.041 74.5723 130.041 72.785L130.041 59.529C130.041 58.3239 129.572 57.1908 128.719 56.3381C127.867 55.486 126.734 55.0167 125.528 55.0165L34.9043 55.0166L28.5423 49.9919C28.0759 49.6242 27.4543 49.5562 26.9199 49.815C26.3854 50.0738 26.0532 50.6038 26.0528 51.1983L26.0529 60.7472L11.6339 60.7469L11.6338 71.1365L26.0527 71.1368L26.053 75.3155L65.3677 78.1477L65.3677 73.5281L65.251 73.5281L65.2281 73.1743C65.1532 73.1789 65.0773 73.1847 64.9998 73.192L64.6932 73.2195L64.6931 77.4222L26.7282 74.6873L26.7277 70.4618L12.3088 70.4615L12.3088 61.4218L26.7278 61.4221L26.728 51.198C26.7281 50.8598 26.9095 50.5703 27.2138 50.4228C27.5181 50.2754 27.8584 50.3123 28.1239 50.5217L34.6701 55.6913L34.787 55.6916L125.528 55.6917C126.553 55.6914 127.517 56.0905 128.242 56.8154C128.967 57.5402 129.366 58.5039 129.366 59.5292L129.366 72.7847C129.366 74.2047 128.215 75.374 126.802 75.3918C123.064 75.4389 116.392 76.1281 113.704 80.2194L113.681 80.254L113.667 80.2931C113.617 80.4338 112.495 83.7736 115.345 87.1486L123.153 100.709C123.511 101.33 123.604 102.053 123.416 102.745C123.228 103.436 122.782 104.013 122.159 104.367L114.69 108.622C114.034 108.996 113.276 109.075 112.556 108.847C111.836 108.618 111.264 108.115 110.944 107.43L101.682 87.6196C100.931 86.0155 99.3028 84.979 97.532 84.9788L81.1234 84.9792L81.0449 85.2062L65.5955 129.948L55.2799 126.386L69.4229 85.4268L68.7844 85.2062L54.4214 126.804L66.0133 130.806L66.1231 130.487L81.6039 85.6537L97.5323 85.6541C99.0417 85.6537 100.431 86.5376 101.07 87.9055L110.332 107.716C110.727 108.561 111.463 109.207 112.352 109.49C113.24 109.772 114.214 109.669 115.024 109.208L122.493 104.954C122.759 104.803 122.998 104.619 123.209 104.409Z" fill="#00FC70" stroke="#00FC70" stroke-width="1.3" stroke-miterlimit="2" stroke-linecap="square" stroke-linejoin="round"/>
<path d="M44.7282 76.6606L40.4859 92.0791C39.8456 94.4071 37.6303 95.998 35.2192 95.8607L34.9367 95.8443C33.3729 95.7557 31.9528 94.975 31.0393 93.7031C30.1259 92.4312 29.8402 90.8359 30.2559 89.3257L33.9538 75.8847L44.7282 76.6606ZM39.6332 94.8385C40.3453 94.1264 40.868 93.2354 41.1367 92.258L45.5969 76.0467L33.4499 75.1719L29.6051 89.1468C29.1353 90.8542 29.4581 92.6585 30.4912 94.0967C31.5241 95.5348 33.1303 96.4177 34.8981 96.5184L35.1807 96.5348C36.5084 96.6101 37.8345 96.2245 38.9148 95.4489C39.1715 95.2644 39.4116 95.0601 39.6332 94.8385Z" fill="#00FC70" stroke="#00FC70" stroke-width="1.3" stroke-miterlimit="2" stroke-linecap="square" stroke-linejoin="round"/>
<path d="M103.907 93.5127L103.908 92.838L95.6239 92.838C94.9157 92.8378 94.2499 92.5619 93.7493 92.0613C93.2488 91.5607 92.9729 90.8949 92.9732 90.1872L92.9732 85.3163L92.298 85.316L92.298 90.1869C92.2982 91.0754 92.6443 91.9107 93.2721 92.5385C93.9005 93.1669 94.7352 93.5124 95.6237 93.5127L103.907 93.5127Z" fill="#00FC70" stroke="#00FC70" stroke-width="1.3" stroke-miterlimit="2" stroke-linecap="square" stroke-linejoin="round"/>
<path d="M104.062 63.0703L110.473 55.5732L109.96 55.1347L103.751 62.3951L79.4 62.3953L71.0591 55.0998L70.6148 55.6079L79.1464 63.0702L104.062 63.0703Z" fill="#00FC70" stroke="#00FC70" stroke-width="1.3" stroke-miterlimit="2" stroke-linecap="square" stroke-linejoin="round"/>
<path d="M129.703 70.6833L129.703 70.0086L95.2138 70.0084C94.3494 70.0084 93.5771 70.5569 93.2917 71.3726L91.9323 75.2624C91.7473 75.792 91.2462 76.1479 90.6852 76.1478L88.7593 76.1479C87.6756 76.1477 86.7942 77.0291 86.7944 78.1128L86.7946 85.3165L87.4693 85.3163L87.4691 78.1125C87.4695 77.4016 88.0482 76.8229 88.759 76.8226L90.685 76.8226C91.533 76.823 92.29 76.2854 92.5695 75.4852L93.929 71.5954C94.1195 71.0496 94.6362 70.6836 95.2135 70.6831L129.703 70.6833Z" fill="#00FC70" stroke="#00FC70" stroke-width="1.3" stroke-miterlimit="2" stroke-linecap="square" stroke-linejoin="round"/>
<path d="M26.7283 70.7992L26.7281 61.0848L26.0534 61.0845L26.0535 70.7989L26.7283 70.7992Z" fill="#00FC70" stroke="#00FC70" stroke-width="1.3" stroke-miterlimit="2" stroke-linecap="square" stroke-linejoin="round"/>
<path d="M65.3673 73.5284L65.3677 66.7798C65.3676 66.1317 64.8404 65.6045 64.1924 65.6044L46.0036 65.6044C45.3536 65.6045 44.8244 66.1337 44.8243 66.7837L44.8245 68.1105C44.8244 68.243 44.7729 68.3675 44.679 68.4614C44.5857 68.5547 44.4612 68.6062 44.3287 68.6063L38.2808 68.6064C38.148 68.6063 38.0231 68.5546 37.9292 68.4606C37.8353 68.3667 37.7835 68.2418 37.7834 68.1091L37.7836 66.7625C37.7833 66.4536 37.6631 66.1626 37.4443 65.9438C37.2256 65.7251 36.9346 65.6048 36.6257 65.6045L35.6075 65.6044C34.969 65.6044 34.4494 66.1241 34.4494 66.7625L34.4495 68.12C34.4495 68.3883 34.2314 68.6061 33.9632 68.6062L26.3901 68.6062L26.3898 69.2815L33.9629 69.2815C34.6033 69.2813 35.124 68.7606 35.1242 68.1203L35.1241 66.7627C35.124 66.4965 35.3409 66.2795 35.6072 66.2796L36.6253 66.2798C36.7546 66.2796 36.8758 66.3298 36.9671 66.4211C37.0583 66.5123 37.1086 66.6336 37.1084 66.7628L37.1087 68.1089C37.1088 68.4219 37.2306 68.7165 37.452 68.9379C37.6734 69.1593 37.9679 69.281 38.281 69.2812L44.3289 69.281C44.6411 69.2815 44.9351 69.1597 45.1562 68.9386C45.3773 68.7175 45.4991 68.4235 45.4991 68.1107L45.4991 66.784C45.4996 66.5055 45.7255 66.2796 46.0034 66.2797L64.1921 66.2796C64.4679 66.2798 64.6924 66.5043 64.6925 66.78L64.6926 73.5282L65.3673 73.5284Z" fill="#00FC70" stroke="#00FC70" stroke-width="1.3" stroke-miterlimit="2" stroke-linecap="square" stroke-linejoin="round"/>
<path d="M92.2971 66.2791L92.2974 66.4877C92.2972 67.2494 91.6773 67.8692 90.9157 67.8694L82.893 67.8694C82.1311 67.8693 81.5112 67.2495 81.5112 66.4876L81.5112 66.2793L92.2971 66.2791ZM92.369 67.9411C92.7414 67.5687 92.9723 67.0547 92.9721 66.4875L92.972 65.6042L80.8363 65.6045L80.8363 66.4877C80.8363 67.6216 81.7589 68.5442 82.8927 68.5441L90.9155 68.5441C91.4827 68.5443 91.9966 68.3135 92.369 67.9411Z" fill="#00FC70" stroke="#00FC70" stroke-width="1.3" stroke-miterlimit="2" stroke-linecap="square" stroke-linejoin="round"/>
<path d="M81.3641 85.6542L81.3641 84.9786L67.0266 84.9792C66.9518 84.9787 66.9046 84.9389 66.8834 84.9156C66.8622 84.8912 66.8277 84.8408 66.8351 84.7666L67.4508 78.841C67.4865 78.4971 67.376 78.1512 67.147 77.8924C66.9185 77.6332 66.5894 77.4801 66.2438 77.4729L65.0381 77.4475L65.0236 78.1223L66.2294 78.1477C66.3889 78.1514 66.5352 78.2191 66.6411 78.3389C66.747 78.4586 66.7959 78.6124 66.7796 78.7711L66.1638 84.6966C66.1384 84.9405 66.2179 85.1855 66.3818 85.3673C66.5467 85.5492 66.781 85.6542 67.0265 85.6537L81.3641 85.6542Z" fill="#00FC70" stroke="#00FC70" stroke-width="1.3" stroke-miterlimit="2" stroke-linecap="square" stroke-linejoin="round"/>
</svg>
