<svg width="24" height="24" viewBox="0 0 24 24" fill="none" xmlns="http://www.w3.org/2000/svg">
<rect width="24" height="24" rx="4" fill="url(#paint0_linear_215_2799)"/>
<path d="M5.52988 6.04C5.44476 5.93408 5.3014 5.89312 5.17404 5.93824C5.04572 5.98304 4.95996 6.104 4.95996 6.24V12C4.95996 12.0742 4.98588 12.1462 5.03292 12.2035L9.51292 17.6435C9.57372 17.7171 9.66428 17.76 9.75996 17.76H14.24C14.3628 17.76 14.4752 17.6893 14.5283 17.5789C14.5817 17.4678 14.5667 17.3363 14.4896 17.24L5.52988 6.04ZM18.8275 6.25888C18.7008 6.21216 18.558 6.25248 18.4723 6.35776L12.7123 13.3978C12.6339 13.4934 12.6179 13.6256 12.6707 13.7376C12.7238 13.8486 12.8364 13.92 12.96 13.92H17.44C17.5372 13.92 17.6291 13.8758 17.6899 13.8L18.9699 12.2C19.0153 12.143 19.04 12.073 19.04 12V6.56C19.04 6.42464 18.9548 6.304 18.8275 6.25888Z" fill="#111111"/>
<defs>
<linearGradient id="paint0_linear_215_2799" x1="12" y1="0" x2="22.5" y2="24" gradientUnits="userSpaceOnUse">
<stop stop-color="#FF4655"/>
<stop offset="1" stop-color="#FF6773"/>
</linearGradient>
</defs>
</svg>
