<svg width="40" height="40" viewBox="0 0 40 40" fill="none" xmlns="http://www.w3.org/2000/svg">
<g clip-path="url(#clip0_494_4100)">
<path d="M40 20.6667C39.9973 25.7934 37.8896 30.7096 34.1392 34.3347C30.3891 37.9597 25.3034 39.9976 19.9999 40C16.2136 40.0013 12.5047 38.9635 9.30488 37.0069C6.10501 35.0504 3.54568 32.2557 1.92474 28.948C0.303782 25.6405 -0.31216 21.9558 0.148583 18.323C0.609326 14.6902 2.12781 11.2585 4.52733 8.42733C6.39739 6.20605 8.75696 4.41645 11.4338 3.18917C14.1106 1.96186 17.0372 1.32782 19.9999 1.33333C20.83 1.33675 21.6592 1.38974 22.4826 1.492C21.8838 2.26146 21.422 3.12219 21.1164 4.03867C20.744 4.016 20.373 4 19.9999 4C17.5791 3.99608 15.1849 4.48765 12.9748 5.4424C10.7647 6.39715 8.7888 7.79339 7.17701 9.53933C9.01771 10.8353 12.7777 14.0173 11.677 17.7427C11.5229 18.1757 11.463 18.6349 11.5013 19.0914C11.5395 19.5479 11.6749 19.9919 11.8991 20.3953C12.8177 21.9407 15.0081 22.4947 15.0302 22.5C15.2012 22.5533 18.055 23.5 18.6812 25.6913C19.0474 26.9725 18.5854 28.3507 17.3095 29.788C16.0817 31.2459 14.4576 32.344 12.6198 32.9587C11.5688 33.3539 10.9729 33.5813 10.626 34.648C14.2566 36.9288 18.643 37.8035 22.911 37.0979C27.1789 36.392 31.0152 34.1576 33.6552 30.84C33.7379 30.736 33.8088 30.6267 33.8888 30.5213C33.4 27.788 32.5165 27.4547 31.5109 27.0813C30.868 26.884 30.2789 26.55 29.7869 26.104C29.2019 25.4817 28.6947 24.795 28.2757 24.058C27.3413 22.5687 26.282 20.8793 23.8619 19.7093L23.3578 19.4667C19.7881 17.7553 17.6336 16.722 19.6681 10.836C19.9485 10.0107 20.381 9.2412 20.9447 8.56467C21.555 11.068 23.273 14.2773 26.084 18.1473C26.4869 18.7007 27.0213 19.1523 27.6427 19.4641C28.264 19.7758 28.9536 19.9386 29.6536 19.9386C30.3536 19.9386 31.0435 19.7758 31.6648 19.4641C32.2859 19.1523 32.8205 18.7007 33.2235 18.1473C34.86 15.9711 36.2693 13.6433 37.4304 11.198C39.1147 14.0882 39.9997 17.3494 40 20.6667ZM27.7787 17C25.7365 14.1873 22.7585 9.58733 22.7585 6.66667C22.7585 4.89856 23.4851 3.20285 24.7785 1.95262C26.0718 0.702379 27.8261 0 29.6552 0C31.4843 0 33.2384 0.702379 34.5317 1.95262C35.8251 3.20285 36.5517 4.89856 36.5517 6.66667C36.5517 9.58733 33.5739 14.1873 31.5317 17C31.3197 17.2908 31.0387 17.5281 30.7123 17.6919C30.3856 17.8557 30.0229 17.9412 29.6552 17.9412C29.2872 17.9412 28.9245 17.8557 28.5981 17.6919C28.2715 17.5281 27.9904 17.2908 27.7787 17ZM29.6552 10C30.3371 10 31.0037 9.80451 31.5709 9.43824C32.1379 9.07197 32.58 8.55136 32.8408 7.94227C33.1019 7.3332 33.1701 6.66296 33.0371 6.01637C32.904 5.36976 32.5757 4.77581 32.0933 4.30965C31.6112 3.84347 30.9968 3.526 30.3277 3.39739C29.6589 3.26877 28.9656 3.33477 28.3355 3.58707C27.7053 3.83936 27.1669 4.26661 26.788 4.81477C26.409 5.36293 26.2068 6.00739 26.2068 6.66667C26.2068 7.55072 26.5701 8.39856 27.2168 9.02368C27.8635 9.6488 28.7405 10 29.6552 10Z" fill="white"/>
</g>
<defs>
<clipPath id="clip0_494_4100">
<rect width="40" height="40" fill="white"/>
</clipPath>
</defs>
</svg>
