<svg width="28" height="28" viewBox="0 0 28 28" fill="none" xmlns="http://www.w3.org/2000/svg">
<path d="M1.67969 15.8359V12.1492L13.6992 0.130712C13.9904 -0.0494216 14.1472 -0.0372883 14.416 0.130712L25.6272 11.3428L14.192 22.6586C14.0482 22.7752 13.967 22.7827 13.8186 22.6586L7.83035 16.6722L9.71102 14.7915L14.0557 19.1352L21.8481 11.3419L14.3236 3.81831C14.0856 3.59991 13.9493 3.57564 13.6973 3.81831L1.67969 15.8359Z" fill="#FAD763"/>
<path d="M26.389 12.1641V15.8508L14.3723 27.8693C14.0802 28.0494 13.9243 28.0373 13.6555 27.8693L2.44336 16.6572L13.8795 5.34142C14.0223 5.22475 14.1035 5.21729 14.2528 5.34142L20.2383 11.3278L18.3576 13.2085L14.0139 8.86475L6.22056 16.6581L13.7451 24.1817C13.9831 24.4001 14.1203 24.4244 14.3723 24.1817L26.389 12.1641Z" fill="#C0A752"/>
</svg>
