<svg width="44" height="44" viewBox="0 0 44 44" fill="none" xmlns="http://www.w3.org/2000/svg">
<rect width="44" height="44" rx="4" fill="url(#paint0_linear_299_7356)"/>
<path d="M10.1376 11.0733C9.98157 10.8791 9.71875 10.804 9.48525 10.8868C9.25 10.9689 9.09277 11.1907 9.09277 11.44V22C9.09277 22.1361 9.14029 22.2681 9.22653 22.3731L17.4399 32.3464C17.5513 32.4814 17.7174 32.56 17.8928 32.56H26.1061C26.3314 32.56 26.5373 32.4303 26.6347 32.2279C26.7327 32.0244 26.7051 31.7832 26.5637 31.6067L10.1376 11.0733ZM34.5166 11.4746C34.2842 11.389 34.0226 11.4629 33.8654 11.6559L23.3054 24.5626C23.1616 24.738 23.1323 24.9803 23.2291 25.1856C23.3265 25.3892 23.533 25.52 23.7594 25.52H31.9728C32.1511 25.52 32.3195 25.439 32.431 25.3L34.7776 22.3667C34.8609 22.2622 34.9061 22.1338 34.9061 22V12.0267C34.9061 11.7785 34.7501 11.5573 34.5166 11.4746Z" fill="#111111"/>
<defs>
<linearGradient id="paint0_linear_299_7356" x1="22" y1="0" x2="41.25" y2="44" gradientUnits="userSpaceOnUse">
<stop stop-color="#FF4655"/>
<stop offset="1" stop-color="#FF6773"/>
</linearGradient>
</defs>
</svg>
