<svg width="150" height="150" viewBox="0 0 150 150" fill="none" xmlns="http://www.w3.org/2000/svg">
<path d="M48.7469 51.6024C48.3343 51.1898 47.8143 50.8852 47.2334 50.7337L34.9744 47.54C34.4385 47.4007 33.8801 47.5147 33.4422 47.8531C33.0038 48.192 32.7527 48.7034 32.7527 49.257L32.7528 55.0167L50.1442 55.0168L49.6009 53.063C49.4448 52.503 49.1464 52.002 48.7469 51.6024ZM32.0778 55.6917L32.078 49.2568C32.0778 48.493 32.4246 47.7867 33.0293 47.3192C33.634 46.8518 34.4047 46.6946 35.1444 46.8871L47.4034 50.0808C48.7789 50.4392 49.8702 51.5126 50.2513 52.882L51.0323 55.6918L32.0778 55.6917Z" fill="#00FC70" stroke="#00FC70" stroke-width="1.3" stroke-miterlimit="2" stroke-linecap="square" stroke-linejoin="round"/>
<path d="M26.7914 104.409C26.384 104.001 26.0877 103.493 25.9323 102.922C25.6971 102.056 25.8141 101.15 26.2621 100.372L34.1003 86.7586L34.1203 86.7351C36.5945 83.8241 35.8161 80.9077 35.7076 80.5521C33.1728 76.7553 26.7814 76.1119 23.1898 76.0666C21.4083 76.0445 19.9594 74.5723 19.9591 72.785L19.9594 59.529C19.9591 58.3239 20.4284 57.1908 21.281 56.3381C22.1331 55.486 23.2663 55.0167 24.4719 55.0165L115.096 55.0166L121.458 49.9919C121.924 49.6242 122.546 49.5562 123.08 49.815C123.615 50.0738 123.947 50.6038 123.947 51.1983L123.947 60.7472L138.366 60.7469L138.366 71.1365L123.947 71.1368L123.947 75.3155L84.6323 78.1477L84.6323 73.5281L84.749 73.5281L84.7719 73.1743C84.8468 73.1789 84.9227 73.1847 85.0002 73.192L85.3068 73.2195L85.3069 77.4222L123.272 74.6873L123.272 70.4618L137.691 70.4615L137.691 61.4218L123.272 61.4221L123.272 51.198C123.272 50.8598 123.091 50.5703 122.786 50.4228C122.482 50.2754 122.142 50.3123 121.876 50.5217L115.33 55.6913L115.213 55.6916L24.4716 55.6917C23.4468 55.6914 22.4831 56.0905 21.7582 56.8154C21.0334 57.5402 20.6343 58.5039 20.6341 59.5292L20.6343 72.7847C20.6343 74.2047 21.7845 75.374 23.198 75.3918C26.9356 75.4389 33.6082 76.1281 36.2965 80.2194L36.3194 80.254L36.3331 80.2931C36.3825 80.4338 37.5048 83.7736 34.6546 87.1486L26.847 100.709C26.4893 101.33 26.3957 102.053 26.5836 102.745C26.772 103.436 27.2181 104.013 27.841 104.367L35.31 108.622C35.9661 108.996 36.7243 109.075 37.4438 108.847C38.1639 108.618 38.7364 108.115 39.0564 107.43L48.3184 87.6196C49.0685 86.0155 50.6972 84.979 52.468 84.9788L68.8766 84.9792L68.9551 85.2062L84.4045 129.948L94.7201 126.386L80.5771 85.4268L81.2156 85.2062L95.5786 126.804L83.9867 130.806L83.8769 130.487L68.3961 85.6537L52.4677 85.6541C50.9583 85.6537 49.5695 86.5376 48.9298 87.9055L39.6678 107.716C39.2728 108.561 38.5371 109.207 37.6481 109.49C36.7598 109.772 35.7861 109.669 34.976 109.208L27.5069 104.954C27.2414 104.803 27.0016 104.619 26.7914 104.409Z" fill="#00FC70" stroke="#00FC70" stroke-width="1.3" stroke-miterlimit="2" stroke-linecap="square" stroke-linejoin="round"/>
<path d="M105.272 76.6606L109.514 92.0791C110.154 94.4071 112.37 95.998 114.781 95.8607L115.063 95.8443C116.627 95.7557 118.047 94.975 118.961 93.7031C119.874 92.4312 120.16 90.8359 119.744 89.3257L116.046 75.8847L105.272 76.6606ZM110.367 94.8385C109.655 94.1264 109.132 93.2354 108.863 92.258L104.403 76.0467L116.55 75.1719L120.395 89.1468C120.865 90.8542 120.542 92.6585 119.509 94.0967C118.476 95.5348 116.87 96.4177 115.102 96.5184L114.819 96.5348C113.492 96.6101 112.165 96.2245 111.085 95.4489C110.828 95.2644 110.588 95.0601 110.367 94.8385Z" fill="#00FC70" stroke="#00FC70" stroke-width="1.3" stroke-miterlimit="2" stroke-linecap="square" stroke-linejoin="round"/>
<path d="M46.0927 93.5127L46.0924 92.838L54.3761 92.838C55.0843 92.8378 55.7501 92.5619 56.2507 92.0613C56.7512 91.5607 57.0271 90.8949 57.0268 90.1872L57.0268 85.3163L57.702 85.316L57.702 90.1869C57.7018 91.0754 57.3557 91.9107 56.7279 92.5385C56.0995 93.1669 55.2648 93.5124 54.3763 93.5127L46.0927 93.5127Z" fill="#00FC70" stroke="#00FC70" stroke-width="1.3" stroke-miterlimit="2" stroke-linecap="square" stroke-linejoin="round"/>
<path d="M45.9383 63.0703L39.5272 55.5732L40.0399 55.1347L46.2494 62.3951L70.6 62.3953L78.9409 55.0998L79.3852 55.6079L70.8536 63.0702L45.9383 63.0703Z" fill="#00FC70" stroke="#00FC70" stroke-width="1.3" stroke-miterlimit="2" stroke-linecap="square" stroke-linejoin="round"/>
<path d="M20.2969 70.6833L20.2966 70.0086L54.7862 70.0084C55.6506 70.0084 56.4229 70.5569 56.7083 71.3726L58.0677 75.2624C58.2527 75.792 58.7538 76.1479 59.3148 76.1478L61.2407 76.1479C62.3244 76.1477 63.2058 77.0291 63.2056 78.1128L63.2054 85.3165L62.5307 85.3163L62.5309 78.1125C62.5305 77.4016 61.9518 76.8229 61.241 76.8226L59.315 76.8226C58.467 76.823 57.71 76.2854 57.4305 75.4852L56.071 71.5954C55.8805 71.0496 55.3638 70.6836 54.7865 70.6831L20.2969 70.6833Z" fill="#00FC70" stroke="#00FC70" stroke-width="1.3" stroke-miterlimit="2" stroke-linecap="square" stroke-linejoin="round"/>
<path d="M123.272 70.7992L123.272 61.0848L123.947 61.0845L123.946 70.7989L123.272 70.7992Z" fill="#00FC70" stroke="#00FC70" stroke-width="1.3" stroke-miterlimit="2" stroke-linecap="square" stroke-linejoin="round"/>
<path d="M84.6327 73.5284L84.6323 66.7798C84.6324 66.1317 85.1596 65.6045 85.8076 65.6044L103.996 65.6044C104.646 65.6045 105.176 66.1337 105.176 66.7837L105.176 68.1105C105.176 68.243 105.227 68.3675 105.321 68.4614C105.414 68.5547 105.539 68.6062 105.671 68.6063L111.719 68.6064C111.852 68.6063 111.977 68.5546 112.071 68.4606C112.165 68.3667 112.216 68.2418 112.217 68.1091L112.216 66.7625C112.217 66.4536 112.337 66.1626 112.556 65.9438C112.774 65.7251 113.065 65.6048 113.374 65.6045L114.393 65.6044C115.031 65.6044 115.551 66.1241 115.551 66.7625L115.551 68.12C115.551 68.3883 115.769 68.6061 116.037 68.6062L123.61 68.6062L123.61 69.2815L116.037 69.2815C115.397 69.2813 114.876 68.7606 114.876 68.1203L114.876 66.7627C114.876 66.4965 114.659 66.2795 114.393 66.2796L113.375 66.2798C113.245 66.2796 113.124 66.3298 113.033 66.4211C112.942 66.5123 112.891 66.6336 112.892 66.7628L112.891 68.1089C112.891 68.4219 112.769 68.7165 112.548 68.9379C112.327 69.1593 112.032 69.281 111.719 69.2812L105.671 69.281C105.359 69.2815 105.065 69.1597 104.844 68.9386C104.623 68.7175 104.501 68.4235 104.501 68.1107L104.501 66.784C104.5 66.5055 104.275 66.2796 103.997 66.2797L85.8079 66.2796C85.5321 66.2798 85.3076 66.5043 85.3075 66.78L85.3074 73.5282L84.6327 73.5284Z" fill="#00FC70" stroke="#00FC70" stroke-width="1.3" stroke-miterlimit="2" stroke-linecap="square" stroke-linejoin="round"/>
<path d="M57.7029 66.2791L57.7026 66.4877C57.7028 67.2494 58.3227 67.8692 59.0843 67.8694L67.107 67.8694C67.8689 67.8693 68.4888 67.2495 68.4888 66.4876L68.4888 66.2793L57.7029 66.2791ZM57.631 67.9411C57.2586 67.5687 57.0277 67.0547 57.0279 66.4875L57.028 65.6042L69.1637 65.6045L69.1637 66.4877C69.1637 67.6216 68.2411 68.5442 67.1073 68.5441L59.0845 68.5441C58.5173 68.5443 58.0034 68.3135 57.631 67.9411Z" fill="#00FC70" stroke="#00FC70" stroke-width="1.3" stroke-miterlimit="2" stroke-linecap="square" stroke-linejoin="round"/>
<path d="M68.6359 85.6542L68.6359 84.9786L82.9734 84.9792C83.0482 84.9787 83.0954 84.9389 83.1166 84.9156C83.1378 84.8912 83.1723 84.8408 83.1649 84.7666L82.5492 78.841C82.5135 78.4971 82.624 78.1512 82.853 77.8924C83.0815 77.6332 83.4106 77.4801 83.7562 77.4729L84.9619 77.4475L84.9764 78.1223L83.7706 78.1477C83.6111 78.1514 83.4648 78.2191 83.3589 78.3389C83.253 78.4586 83.2041 78.6124 83.2204 78.7711L83.8362 84.6966C83.8616 84.9405 83.7821 85.1855 83.6182 85.3673C83.4533 85.5492 83.219 85.6542 82.9735 85.6537L68.6359 85.6542Z" fill="#00FC70" stroke="#00FC70" stroke-width="1.3" stroke-miterlimit="2" stroke-linecap="square" stroke-linejoin="round"/>
</svg>
