<svg width="24" height="24" viewBox="0 0 24 24" fill="none" xmlns="http://www.w3.org/2000/svg">
<g clip-path="url(#clip0_494_4046)">
<path d="M23.2807 12C23.2807 5.77023 18.2305 0.720001 12.0007 0.720001C5.77093 0.720001 0.720703 5.77023 0.720703 12C0.720703 18.2298 5.77093 23.28 12.0007 23.28C18.2305 23.28 23.2807 18.2298 23.2807 12Z" stroke="white" stroke-opacity="0.3" stroke-width="1.5"/>
<path d="M8.34961 10.8524H10.3012V16.1928H8.34961V10.8524Z" fill="white"/>
<path d="M14.8774 10.8524V12.5054H8.34961V10.8524H14.8774Z" fill="white"/>
<path d="M17.2799 16.32C17.2799 16.32 15.1491 16.2564 14.8771 15.8114C14.6051 15.3663 12.6562 12.0604 12.6562 12.0604L14.1716 11.2339L17.2799 16.32Z" fill="white"/>
<path d="M15.0575 7.07453C14.5072 6.83818 13.8442 6.72 13.0686 6.72H6.7207C6.7207 6.72 7.09948 8.09083 8.35009 8.09083C9.6007 8.09083 12.9607 8.16 12.9607 8.16C13.6779 8.16 14.2486 8.16174 14.6073 8.44536C14.9742 8.72898 15.1577 9.13471 15.1577 9.66259C15.1577 10.1825 14.9742 10.5882 14.6073 10.8798C14.2486 11.1712 13.7108 11.3171 12.9935 11.3171V12.2388H15.0575C15.6164 12.0024 16.0458 11.6676 16.346 11.2343C16.6462 10.7931 16.7964 10.2692 16.7964 9.66259C16.7964 9.05593 16.6462 8.53202 16.346 8.09083C16.0458 7.64965 15.6164 7.31088 15.0575 7.07453Z" fill="white"/>
</g>
<defs>
<clipPath id="clip0_494_4046">
<rect width="24" height="24" fill="white"/>
</clipPath>
</defs>
</svg>
