<svg width="28" height="28" viewBox="0 0 28 28" fill="none" xmlns="http://www.w3.org/2000/svg">
<g clip-path="url(#clip0_515_223)">
<mask id="mask0_515_223" style="mask-type:luminance" maskUnits="userSpaceOnUse" x="0" y="0" width="28" height="28">
<path d="M0 0H28V28H0V0Z" fill="white"/>
</mask>
<g mask="url(#mask0_515_223)">
<path d="M28.001 12.012V15.3384L18.4577 5.85204C15.5084 3.84538 12.8941 3.69604 9.56678 5.85204L3.98078 11.438L11.2878 18.7451C13.0201 20.328 14.9586 20.4195 16.8402 18.7451L20.8666 14.7187L22.541 16.3931L17.7689 21.1652C15.3366 22.8966 12.5954 22.9311 10.278 21.1652C7.96145 19.3984 0.550781 11.438 0.550781 11.438L8.35065 3.67271C11.8954 1.00058 16.3586 1.02298 19.7074 3.67271L28.001 12.012Z" fill="#009E81"/>
<path d="M0 15.8275V12.502L9.5452 21.9875C12.4927 23.9941 15.1079 24.1435 18.4352 21.9875L24.0212 16.4015L16.7141 9.09441C14.9819 7.51241 13.0433 7.42001 11.1617 9.09441L7.13533 13.1208L5.46093 11.4464L10.2331 6.67427C12.6644 4.94294 15.4065 4.90841 17.724 6.67427C20.0405 8.44107 27.4512 16.4015 27.4512 16.4015L19.6513 24.1668C16.1065 26.8389 11.6433 26.8165 8.29453 24.1668L0 15.8275Z" fill="#057D6B"/>
</g>
</g>
<defs>
<clipPath id="clip0_515_223">
<rect width="28" height="28" fill="white"/>
</clipPath>
</defs>
</svg>
