<svg width="28" height="28" viewBox="0 0 28 28" fill="none" xmlns="http://www.w3.org/2000/svg">
<g clip-path="url(#clip0_515_200)">
<mask id="mask0_515_200" style="mask-type:luminance" maskUnits="userSpaceOnUse" x="0" y="0" width="28" height="28">
<path d="M0 0H28V28H0V0Z" fill="white"/>
</mask>
<g mask="url(#mask0_515_200)">
<path d="M0.0653333 17.3824L1.94693 18.8011L6.98693 3.26668L7.24453 3.03428H16.9783L17.2359 3.31801L21.0131 14.8951L14.0131 20.0004L8.09573 15.7201L7.37427 17.8985L7.47693 18.2719L13.8199 22.8741H14.2063L23.6815 16.016L23.772 15.5521L19.1053 1.13961L18.5248 0.572144H5.60747L5.0148 1.29454L0 16.66L0.0653333 17.3824Z" fill="#F4965A"/>
<path d="M25.2024 16.031L20.1997 0.626325L20.1755 0.560059H22.3408L22.9605 1.20499L28.0005 16.6881L27.91 17.4095L14.3356 27.3103H13.7299L3.24855 19.6925L3.13281 18.9962L7.94041 4.26166H16.2172L17.0292 6.71072H9.69321L5.91788 18.2094L6.00841 18.6863L13.7299 24.3461H14.3104L25.2005 16.3922L25.2024 16.031Z" fill="#BB764D"/>
</g>
</g>
<defs>
<clipPath id="clip0_515_200">
<rect width="28" height="28" fill="white"/>
</clipPath>
</defs>
</svg>
