<svg width="1920" height="1206" viewBox="0 0 1920 1206" fill="none" xmlns="http://www.w3.org/2000/svg">
<g style="mix-blend-mode:plus-lighter" opacity="0.6">
<g opacity="0.7">
<path opacity="0.11" d="M261.814 803.562C263.013 802.782 263.354 801.175 262.576 799.973C261.798 798.771 260.196 798.429 258.997 799.209C257.799 799.989 257.458 801.596 258.236 802.798C259.013 804 260.616 804.342 261.814 803.562Z" fill="#00BF6F"/>
<path d="M276.585 810.936C277.484 810.352 277.739 809.147 277.156 808.246C276.573 807.345 275.372 807.088 274.473 807.673C273.574 808.258 273.318 809.462 273.902 810.364C274.485 811.265 275.686 811.521 276.585 810.936Z" fill="#00BF6F"/>
<path d="M297.615 764.81C298.513 764.226 298.769 763.021 298.186 762.12C297.603 761.219 296.401 760.962 295.503 761.547C294.604 762.132 294.348 763.336 294.932 764.238C295.515 765.139 296.716 765.395 297.615 764.81Z" fill="#00BF6F"/>
<path d="M204.003 822.627C204.902 822.042 205.158 820.837 204.575 819.936C203.991 819.035 202.79 818.778 201.891 819.363C200.993 819.948 200.737 821.153 201.32 822.054C201.903 822.955 203.105 823.211 204.003 822.627Z" fill="#00BF6F"/>
<path opacity="0.11" d="M167.199 883.674C168.398 882.894 168.739 881.288 167.961 880.086C167.183 878.884 165.581 878.542 164.383 879.322C163.184 880.102 162.843 881.709 163.621 882.91C164.399 884.112 166.001 884.454 167.199 883.674Z" fill="#00BF6F"/>
<path d="M131.113 873.15C131.712 872.76 131.883 871.958 131.494 871.357C131.105 870.757 130.305 870.586 129.706 870.976C129.107 871.365 128.937 872.168 129.326 872.768C129.714 873.369 130.515 873.54 131.113 873.15Z" fill="#00BF6F"/>
<path d="M286 848.104C286.599 847.715 286.769 846.912 286.381 846.312C285.992 845.711 285.192 845.54 284.593 845.93C283.994 846.32 283.824 847.122 284.212 847.723C284.601 848.323 285.401 848.494 286 848.104Z" fill="#00BF6F"/>
<path d="M522.473 694.228C523.072 693.838 523.242 693.035 522.854 692.435C522.465 691.834 521.665 691.664 521.066 692.053C520.467 692.443 520.297 693.246 520.685 693.846C521.074 694.446 521.875 694.617 522.473 694.228Z" fill="#00BF6F"/>
<path d="M602.686 558.544C603.285 558.154 603.455 557.352 603.066 556.751C602.678 556.151 601.877 555.98 601.279 556.37C600.68 556.759 600.509 557.562 600.898 558.162C601.287 558.763 602.087 558.934 602.686 558.544Z" fill="#00BF6F"/>
<path d="M696.378 610.415C696.976 610.025 697.147 609.223 696.758 608.622C696.37 608.022 695.569 607.851 694.97 608.241C694.372 608.63 694.201 609.433 694.59 610.033C694.978 610.634 695.779 610.805 696.378 610.415Z" fill="#00BF6F"/>
<path opacity="0.11" d="M130.494 893.649C131.093 893.259 131.263 892.457 130.875 891.856C130.486 891.256 129.686 891.085 129.087 891.475C128.488 891.864 128.318 892.667 128.706 893.267C129.095 893.868 129.895 894.039 130.494 893.649Z" fill="#00BF6F"/>
<path opacity="0.11" d="M309.186 888.669C309.784 888.279 309.955 887.476 309.566 886.876C309.178 886.276 308.377 886.105 307.779 886.494C307.18 886.884 307.009 887.687 307.398 888.287C307.786 888.888 308.587 889.058 309.186 888.669Z" fill="#00BF6F"/>
<path opacity="0.11" d="M510.399 742.268C510.998 741.879 511.168 741.076 510.78 740.476C510.391 739.875 509.591 739.704 508.992 740.094C508.393 740.484 508.223 741.286 508.611 741.887C509 742.487 509.8 742.658 510.399 742.268Z" fill="#00BF6F"/>
<path d="M150.969 775.214C151.568 774.824 151.738 774.022 151.349 773.421C150.961 772.821 150.161 772.65 149.562 773.04C148.963 773.429 148.793 774.232 149.181 774.832C149.57 775.433 150.37 775.604 150.969 775.214Z" fill="#00BF6F"/>
<path d="M316.602 664.337C317.201 663.947 317.371 663.144 316.983 662.544C316.594 661.943 315.794 661.773 315.195 662.162C314.596 662.552 314.426 663.355 314.814 663.955C315.203 664.555 316.003 664.726 316.602 664.337Z" fill="#00BF6F"/>
<path d="M141.967 923.281C142.566 922.892 142.736 922.089 142.348 921.489C141.959 920.888 141.159 920.717 140.56 921.107C139.961 921.497 139.791 922.299 140.179 922.9C140.568 923.5 141.368 923.671 141.967 923.281Z" fill="#00BF6F"/>
<path opacity="0.3" d="M66.0387 972.698C66.6375 972.309 66.8079 971.506 66.4193 970.906C66.0307 970.305 65.2303 970.134 64.6316 970.524C64.0328 970.914 63.8623 971.716 64.2509 972.317C64.6395 972.917 65.4399 973.088 66.0387 972.698Z" fill="#00BF6F"/>
<path opacity="0.3" d="M187.396 788.611C187.994 788.222 188.165 787.419 187.776 786.819C187.388 786.218 186.587 786.047 185.988 786.437C185.39 786.827 185.219 787.629 185.608 788.23C185.996 788.83 186.797 789.001 187.396 788.611Z" fill="#00BF6F"/>
<path opacity="0.3" d="M173.787 931.954C174.386 931.564 174.556 930.762 174.168 930.161C173.779 929.561 172.979 929.39 172.38 929.78C171.781 930.169 171.611 930.972 171.999 931.572C172.388 932.173 173.188 932.344 173.787 931.954Z" fill="#00BF6F"/>
<path opacity="0.3" d="M49.5719 1028.24C50.1706 1027.85 50.3411 1027.05 49.9525 1026.44C49.5639 1025.84 48.7635 1025.67 48.1647 1026.06C47.566 1026.45 47.3955 1027.26 47.7841 1027.86C48.1727 1028.46 48.9731 1028.63 49.5719 1028.24Z" fill="#00BF6F"/>
<path opacity="0.3" d="M643.518 533.521C644.117 533.131 644.287 532.329 643.899 531.728C643.51 531.128 642.71 530.957 642.111 531.346C641.512 531.736 641.342 532.539 641.73 533.139C642.119 533.74 642.919 533.911 643.518 533.521Z" fill="#00BF6F"/>
<path opacity="0.11" d="M440.026 602.566C440.625 602.177 440.795 601.374 440.407 600.774C440.018 600.173 439.218 600.002 438.619 600.392C438.02 600.782 437.85 601.584 438.238 602.185C438.627 602.785 439.427 602.956 440.026 602.566Z" fill="#00BF6F"/>
<path opacity="0.11" d="M644.505 599.348C645.104 598.958 645.274 598.156 644.886 597.555C644.497 596.955 643.697 596.784 643.098 597.174C642.499 597.563 642.329 598.366 642.717 598.966C643.106 599.567 643.906 599.738 644.505 599.348Z" fill="#00BF6F"/>
<path opacity="0.3" d="M376.403 787.725C377.602 786.945 377.943 785.338 377.165 784.137C376.387 782.935 374.785 782.592 373.586 783.372C372.388 784.152 372.047 785.759 372.824 786.961C373.602 788.163 375.205 788.505 376.403 787.725Z" fill="#00BF6F"/>
<path opacity="0.11" d="M419.293 713.447C420.491 712.667 420.832 711.06 420.054 709.858C419.277 708.657 417.674 708.315 416.476 709.095C415.277 709.875 414.936 711.481 415.714 712.683C416.492 713.885 418.094 714.227 419.293 713.447Z" fill="#00BF6F"/>
<path d="M394.115 675.733C395.014 675.148 395.27 673.944 394.686 673.042C394.103 672.141 392.902 671.885 392.003 672.47C391.104 673.054 390.849 674.259 391.432 675.16C392.015 676.061 393.216 676.318 394.115 675.733Z" fill="#00BF6F"/>
<path d="M393.19 838.643C394.089 838.059 394.344 836.854 393.761 835.953C393.178 835.052 391.977 834.795 391.078 835.38C390.179 835.965 389.923 837.169 390.507 838.071C391.09 838.972 392.291 839.228 393.19 838.643Z" fill="#00BF6F"/>
<path d="M767.386 626.05C768.284 625.465 768.54 624.26 767.957 623.359C767.374 622.458 766.172 622.201 765.274 622.786C764.375 623.371 764.119 624.576 764.702 625.477C765.286 626.378 766.487 626.634 767.386 626.05Z" fill="#00BF6F"/>
<path d="M51.4437 1065.67C52.3424 1065.08 52.5982 1063.88 52.0149 1062.98C51.4317 1062.08 50.2305 1061.82 49.3318 1062.4C48.4331 1062.99 48.1774 1064.19 48.7606 1065.09C49.3438 1066 50.545 1066.25 51.4437 1065.67Z" fill="#00BF6F"/>
<path d="M356.14 731.364C357.039 730.779 357.295 729.574 356.711 728.673C356.128 727.772 354.927 727.515 354.028 728.1C353.129 728.685 352.874 729.89 353.457 730.791C354.04 731.692 355.241 731.948 356.14 731.364Z" fill="#00BF6F"/>
<path d="M219.486 934.676C220.385 934.092 220.641 932.887 220.058 931.986C219.474 931.085 218.273 930.828 217.374 931.413C216.476 931.998 216.22 933.202 216.803 934.104C217.386 935.005 218.588 935.261 219.486 934.676Z" fill="#00BF6F"/>
<path d="M523.099 803.574C523.998 802.99 524.253 801.785 523.67 800.884C523.087 799.983 521.886 799.726 520.987 800.311C520.088 800.896 519.833 802.101 520.416 803.002C520.999 803.903 522.2 804.159 523.099 803.574Z" fill="#00BF6F"/>
<path d="M762.667 542.548C763.566 541.964 763.822 540.759 763.239 539.858C762.655 538.957 761.454 538.7 760.555 539.285C759.657 539.87 759.401 541.074 759.984 541.976C760.567 542.877 761.769 543.133 762.667 542.548Z" fill="#00BF6F"/>
<path d="M749.985 465.784C750.884 465.199 751.14 463.995 750.556 463.093C749.973 462.192 748.772 461.936 747.873 462.521C746.975 463.105 746.719 464.31 747.302 465.211C747.885 466.112 749.087 466.369 749.985 465.784Z" fill="#00BF6F"/>
<path opacity="0.3" d="M484.307 618.583C485.506 617.803 485.847 616.197 485.069 614.995C484.291 613.793 482.689 613.451 481.491 614.231C480.292 615.011 479.951 616.617 480.729 617.819C481.507 619.021 483.109 619.363 484.307 618.583Z" fill="#00BF6F"/>
<path d="M434.328 541.358C435.527 540.578 435.868 538.972 435.09 537.77C434.312 536.568 432.71 536.226 431.512 537.006C430.313 537.786 429.972 539.393 430.75 540.594C431.528 541.796 433.13 542.138 434.328 541.358Z" fill="#00BF6F"/>
<path d="M555.66 606.159C556.558 605.574 556.814 604.37 556.231 603.468C555.648 602.567 554.446 602.311 553.548 602.896C552.649 603.48 552.393 604.685 552.976 605.586C553.56 606.487 554.761 606.744 555.66 606.159Z" fill="#00BF6F"/>
<path opacity="0.3" d="M580.82 529.506C582.018 528.726 582.359 527.119 581.581 525.918C580.804 524.716 579.201 524.374 578.003 525.154C576.804 525.934 576.463 527.54 577.241 528.742C578.019 529.944 579.621 530.286 580.82 529.506Z" fill="#00BF6F"/>
<path opacity="0.3" d="M738.184 536.845C739.383 536.065 739.724 534.459 738.946 533.257C738.168 532.055 736.566 531.713 735.368 532.493C734.169 533.273 733.828 534.88 734.606 536.082C735.383 537.283 736.986 537.625 738.184 536.845Z" fill="#00BF6F"/>
<path opacity="0.3" d="M612.67 621.611C613.868 620.831 614.209 619.224 613.431 618.022C612.654 616.82 611.051 616.478 609.853 617.258C608.654 618.038 608.313 619.645 609.091 620.847C609.869 622.049 611.471 622.391 612.67 621.611Z" fill="#00BF6F"/>
<path opacity="0.3" d="M2.0187 1045.27C3.21728 1044.49 3.55837 1042.88 2.78054 1041.68C2.00271 1040.48 0.400536 1040.13 -0.798041 1040.91C-1.99662 1041.69 -2.33772 1043.3 -1.55989 1044.5C-0.782061 1045.7 0.820124 1046.05 2.0187 1045.27Z" fill="#00BF6F"/>
<path opacity="0.11" d="M672.581 533.156C673.779 532.376 674.12 530.77 673.343 529.568C672.565 528.366 670.963 528.024 669.764 528.804C668.565 529.584 668.224 531.191 669.002 532.393C669.78 533.594 671.382 533.936 672.581 533.156Z" fill="#00BF6F"/>
<path opacity="0.3" d="M6.62473 904.702C7.82331 903.922 8.16434 902.315 7.38651 901.113C6.60868 899.911 5.00649 899.569 3.80792 900.349C2.60934 901.129 2.26824 902.736 3.04607 903.938C3.8239 905.14 5.42615 905.482 6.62473 904.702Z" fill="#00BF6F"/>
<path opacity="0.3" d="M-0.373878 977.261C0.824699 976.481 1.16579 974.875 0.387958 973.673C-0.389872 972.471 -1.99204 972.129 -3.19062 972.909C-4.3892 973.689 -4.7303 975.295 -3.95247 976.497C-3.17464 977.699 -1.57245 978.041 -0.373878 977.261Z" fill="#00BF6F"/>
<path d="M66.7182 932.063C67.6169 931.478 67.8726 930.274 67.2894 929.373C66.7062 928.471 65.5049 928.215 64.6062 928.8C63.7075 929.385 63.4518 930.589 64.035 931.49C64.6182 932.392 65.8195 932.648 66.7182 932.063Z" fill="#00BF6F"/>
<path opacity="0.11" d="M421.955 227.292C423.153 226.512 423.494 224.905 422.717 223.703C421.939 222.502 420.337 222.159 419.138 222.939C417.939 223.719 417.598 225.326 418.376 226.528C419.154 227.73 420.756 228.072 421.955 227.292Z" fill="#00BF6F"/>
<path d="M436.747 234.675C437.646 234.09 437.901 232.885 437.318 231.984C436.735 231.083 435.534 230.826 434.635 231.411C433.736 231.996 433.481 233.201 434.064 234.102C434.647 235.003 435.848 235.259 436.747 234.675Z" fill="#00BF6F"/>
<path d="M457.769 188.54C458.668 187.955 458.924 186.751 458.341 185.85C457.758 184.949 456.556 184.692 455.657 185.277C454.759 185.862 454.503 187.066 455.086 187.968C455.669 188.869 456.871 189.125 457.769 188.54Z" fill="#00BF6F"/>
<path d="M364.156 246.36C365.054 245.775 365.31 244.57 364.727 243.669C364.144 242.768 362.942 242.512 362.044 243.096C361.145 243.681 360.889 244.886 361.473 245.787C362.056 246.688 363.257 246.945 364.156 246.36Z" fill="#00BF6F"/>
<path opacity="0.11" d="M327.355 307.408C328.554 306.628 328.895 305.021 328.117 303.819C327.339 302.617 325.737 302.275 324.538 303.055C323.34 303.835 322.999 305.442 323.777 306.644C324.554 307.846 326.157 308.188 327.355 307.408Z" fill="#00BF6F"/>
<path d="M291.259 296.888C291.858 296.498 292.028 295.696 291.64 295.095C291.251 294.495 290.451 294.324 289.852 294.714C289.253 295.103 289.083 295.906 289.471 296.506C289.86 297.107 290.66 297.278 291.259 296.888Z" fill="#00BF6F"/>
<path d="M446.148 271.837C446.747 271.448 446.917 270.645 446.529 270.045C446.14 269.444 445.34 269.273 444.741 269.663C444.142 270.053 443.972 270.855 444.36 271.456C444.749 272.056 445.549 272.227 446.148 271.837Z" fill="#00BF6F"/>
<path d="M682.617 117.961C683.216 117.571 683.386 116.769 682.997 116.168C682.609 115.568 681.808 115.397 681.21 115.787C680.611 116.176 680.44 116.979 680.829 117.579C681.218 118.18 682.018 118.351 682.617 117.961Z" fill="#00BF6F"/>
<path d="M856.528 34.156C857.127 33.7664 857.297 32.9638 856.909 32.3633C856.52 31.7629 855.72 31.592 855.121 31.9816C854.522 32.3713 854.352 33.174 854.74 33.7744C855.129 34.3748 855.929 34.5457 856.528 34.156Z" fill="#00BF6F"/>
<path d="M67.3429 479.697C67.9417 479.307 68.1121 478.505 67.7235 477.904C67.3349 477.304 66.5345 477.133 65.9357 477.522C65.337 477.912 65.1666 478.715 65.5552 479.315C65.9437 479.916 66.7442 480.086 67.3429 479.697Z" fill="#00BF6F"/>
<path opacity="0.11" d="M13.0734 431.548C13.6722 431.159 13.8425 430.356 13.454 429.756C13.0654 429.155 12.265 428.984 11.6662 429.374C11.0674 429.764 10.897 430.566 11.2856 431.167C11.6742 431.767 12.4746 431.938 13.0734 431.548Z" fill="#00BF6F"/>
<path opacity="0.11" d="M60.6525 528.886C61.2512 528.496 61.4217 527.694 61.0331 527.093C60.6445 526.493 59.8441 526.322 59.2453 526.712C58.6465 527.101 58.4761 527.904 58.8647 528.504C59.2533 529.105 60.0537 529.276 60.6525 528.886Z" fill="#00BF6F"/>
<path opacity="0.11" d="M290.637 317.376C291.236 316.986 291.407 316.184 291.018 315.583C290.629 314.983 289.829 314.812 289.23 315.202C288.631 315.591 288.461 316.394 288.85 316.994C289.238 317.595 290.039 317.766 290.637 317.376Z" fill="#00BF6F"/>
<path opacity="0.11" d="M469.334 312.407C469.933 312.017 470.103 311.215 469.715 310.614C469.326 310.014 468.526 309.843 467.927 310.232C467.328 310.622 467.158 311.425 467.546 312.025C467.935 312.626 468.735 312.796 469.334 312.407Z" fill="#00BF6F"/>
<path opacity="0.11" d="M670.544 165.998C671.143 165.608 671.313 164.806 670.925 164.205C670.536 163.605 669.736 163.434 669.137 163.824C668.538 164.213 668.368 165.016 668.756 165.616C669.145 166.217 669.945 166.388 670.544 165.998Z" fill="#00BF6F"/>
<path opacity="0.3" d="M99.6506 420.03C100.249 419.641 100.42 418.838 100.031 418.238C99.6426 417.637 98.8422 417.466 98.2434 417.856C97.6446 418.246 97.4742 419.048 97.8628 419.649C98.2514 420.249 99.0518 420.42 99.6506 420.03Z" fill="#00BF6F"/>
<path d="M311.115 198.947C311.714 198.558 311.884 197.755 311.495 197.154C311.107 196.554 310.306 196.383 309.708 196.773C309.109 197.162 308.939 197.965 309.327 198.566C309.716 199.166 310.516 199.337 311.115 198.947Z" fill="#00BF6F"/>
<path d="M476.745 88.0747C477.344 87.6851 477.514 86.8824 477.126 86.282C476.737 85.6816 475.937 85.5107 475.338 85.9003C474.739 86.29 474.569 87.0927 474.958 87.6931C475.346 88.2935 476.147 88.4644 476.745 88.0747Z" fill="#00BF6F"/>
<path d="M302.117 347.018C302.716 346.628 302.886 345.826 302.498 345.225C302.109 344.625 301.309 344.454 300.71 344.844C300.111 345.233 299.941 346.036 300.33 346.636C300.718 347.237 301.519 347.408 302.117 347.018Z" fill="#00BF6F"/>
<path opacity="0.3" d="M226.182 396.427C226.781 396.037 226.951 395.235 226.562 394.634C226.174 394.034 225.373 393.863 224.775 394.252C224.176 394.642 224.005 395.445 224.394 396.045C224.783 396.646 225.583 396.816 226.182 396.427Z" fill="#00BF6F"/>
<path opacity="0.11" d="M93.612 386.873C94.2108 386.483 94.3811 385.68 93.9926 385.08C93.604 384.48 92.8035 384.309 92.2048 384.698C91.606 385.088 91.4356 385.891 91.8242 386.491C92.2128 387.092 93.0132 387.262 93.612 386.873Z" fill="#00BF6F"/>
<path opacity="0.3" d="M347.541 212.349C348.139 211.96 348.31 211.157 347.921 210.557C347.533 209.956 346.732 209.785 346.134 210.175C345.535 210.565 345.364 211.367 345.753 211.968C346.142 212.568 346.942 212.739 347.541 212.349Z" fill="#00BF6F"/>
<path opacity="0.3" d="M333.94 355.684C334.538 355.294 334.709 354.492 334.32 353.891C333.932 353.291 333.131 353.12 332.532 353.51C331.934 353.899 331.763 354.702 332.152 355.302C332.54 355.903 333.341 356.074 333.94 355.684Z" fill="#00BF6F"/>
<path opacity="0.3" d="M209.727 451.972C210.325 451.583 210.496 450.78 210.107 450.179C209.719 449.579 208.918 449.408 208.32 449.798C207.721 450.188 207.55 450.99 207.939 451.591C208.327 452.191 209.128 452.362 209.727 451.972Z" fill="#00BF6F"/>
<path opacity="0.3" d="M131.113 399.565C131.712 399.175 131.883 398.373 131.494 397.772C131.105 397.172 130.305 397.001 129.706 397.391C129.107 397.78 128.937 398.583 129.326 399.183C129.714 399.784 130.515 399.955 131.113 399.565Z" fill="#00BF6F"/>
<path opacity="0.11" d="M600.17 26.2996C600.768 25.9099 600.939 25.1073 600.55 24.5068C600.162 23.9064 599.361 23.7355 598.762 24.1252C598.164 24.5149 597.993 25.3175 598.382 25.9179C598.77 26.5184 599.571 26.6892 600.17 26.2996Z" fill="#00BF6F"/>
<path opacity="0.11" d="M804.653 23.0779C805.251 22.6883 805.422 21.8856 805.033 21.2852C804.645 20.6848 803.844 20.5139 803.245 20.9036C802.647 21.2932 802.476 22.0959 802.865 22.6963C803.253 23.2967 804.054 23.4676 804.653 23.0779Z" fill="#00BF6F"/>
<path opacity="0.3" d="M536.558 211.458C537.757 210.678 538.098 209.072 537.32 207.87C536.542 206.668 534.94 206.326 533.741 207.106C532.543 207.886 532.202 209.492 532.98 210.694C533.758 211.896 535.36 212.238 536.558 211.458Z" fill="#00BF6F"/>
<path opacity="0.11" d="M579.441 137.185C580.639 136.405 580.98 134.798 580.202 133.597C579.425 132.395 577.822 132.053 576.624 132.833C575.425 133.613 575.084 135.219 575.862 136.421C576.64 137.623 578.242 137.965 579.441 137.185Z" fill="#00BF6F"/>
<path d="M554.27 99.4614C555.169 98.8766 555.424 97.672 554.841 96.7708C554.258 95.8696 553.057 95.6132 552.158 96.198C551.259 96.7829 551.004 97.9875 551.587 98.8887C552.17 99.7898 553.371 100.046 554.27 99.4614Z" fill="#00BF6F"/>
<path d="M553.339 262.376C554.238 261.792 554.494 260.587 553.91 259.686C553.327 258.785 552.126 258.528 551.227 259.113C550.329 259.698 550.073 260.902 550.656 261.804C551.239 262.705 552.441 262.961 553.339 262.376Z" fill="#00BF6F"/>
<path d="M927.533 49.7827C928.431 49.1979 928.687 47.9933 928.104 47.0921C927.521 46.1909 926.319 45.9345 925.421 46.5193C924.522 47.1041 924.266 48.3088 924.849 49.2099C925.433 50.1111 926.634 50.3675 927.533 49.7827Z" fill="#00BF6F"/>
<path d="M211.59 489.397C212.488 488.812 212.744 487.608 212.161 486.707C211.578 485.805 210.376 485.549 209.478 486.134C208.579 486.719 208.323 487.923 208.907 488.824C209.49 489.726 210.691 489.982 211.59 489.397Z" fill="#00BF6F"/>
<path d="M51.1469 558.261C52.0456 557.677 52.3013 556.472 51.7181 555.571C51.1349 554.67 49.9336 554.413 49.0349 554.998C48.1362 555.583 47.8805 556.788 48.4637 557.689C49.0469 558.59 50.2482 558.846 51.1469 558.261Z" fill="#00BF6F"/>
<path d="M4.54634 526.75C5.44502 526.165 5.70074 524.96 5.11753 524.059C4.53433 523.158 3.33301 522.901 2.43434 523.486C1.53566 524.071 1.27993 525.276 1.86313 526.177C2.44634 527.078 3.64767 527.334 4.54634 526.75Z" fill="#00BF6F"/>
<path d="M516.288 155.098C517.187 154.514 517.442 153.309 516.859 152.408C516.276 151.507 515.075 151.25 514.176 151.835C513.277 152.42 513.022 153.624 513.605 154.526C514.188 155.427 515.389 155.683 516.288 155.098Z" fill="#00BF6F"/>
<path d="M379.639 358.406C380.537 357.821 380.793 356.617 380.21 355.716C379.627 354.814 378.425 354.558 377.527 355.143C376.628 355.727 376.372 356.932 376.955 357.833C377.539 358.734 378.74 358.991 379.639 358.406Z" fill="#00BF6F"/>
<path d="M683.253 227.305C684.152 226.72 684.408 225.515 683.825 224.614C683.241 223.713 682.04 223.456 681.141 224.041C680.243 224.626 679.987 225.831 680.57 226.732C681.153 227.633 682.355 227.889 683.253 227.305Z" fill="#00BF6F"/>
<path opacity="0.3" d="M644.457 42.3133C645.656 41.5333 645.997 39.9267 645.219 38.7248C644.441 37.5229 642.839 37.1809 641.64 37.9609C640.442 38.7409 640.101 40.3475 640.879 41.5494C641.656 42.7513 643.259 43.0933 644.457 42.3133Z" fill="#00BF6F"/>
<path d="M715.814 29.8875C716.713 29.3026 716.969 28.098 716.386 27.1969C715.802 26.2957 714.601 26.0392 713.702 26.6241C712.804 27.2089 712.548 28.4135 713.131 29.3147C713.714 30.2159 714.916 30.4723 715.814 29.8875Z" fill="#00BF6F"/>
<path opacity="0.3" d="M772.819 45.3407C774.018 44.5607 774.359 42.9541 773.581 41.7522C772.803 40.5503 771.201 40.2083 770.002 40.9882C768.804 41.7682 768.463 43.3748 769.24 44.5767C770.018 45.7786 771.62 46.1207 772.819 45.3407Z" fill="#00BF6F"/>
<path opacity="0.3" d="M162.174 469.004C163.373 468.224 163.714 466.617 162.936 465.416C162.158 464.214 160.556 463.872 159.357 464.652C158.159 465.432 157.818 467.038 158.595 468.24C159.373 469.442 160.975 469.784 162.174 469.004Z" fill="#00BF6F"/>
<path opacity="0.3" d="M35.5798 466.359C36.7783 465.579 37.1194 463.972 36.3416 462.771C35.5637 461.569 33.9616 461.227 32.763 462.007C31.5644 462.787 31.2233 464.393 32.0011 465.595C32.779 466.797 34.3812 467.139 35.5798 466.359Z" fill="#00BF6F"/>
<path opacity="0.3" d="M166.764 328.435C167.963 327.655 168.304 326.048 167.526 324.846C166.748 323.645 165.146 323.303 163.948 324.083C162.749 324.863 162.408 326.469 163.186 327.671C163.964 328.873 165.566 329.215 166.764 328.435Z" fill="#00BF6F"/>
<path opacity="0.11" d="M123.397 325.742C124.595 324.962 124.936 323.355 124.158 322.153C123.381 320.951 121.778 320.609 120.58 321.389C119.381 322.169 119.04 323.776 119.818 324.978C120.596 326.18 122.198 326.522 123.397 325.742Z" fill="#00BF6F"/>
<path opacity="0.3" d="M159.785 400.999C160.984 400.219 161.325 398.613 160.547 397.411C159.769 396.209 158.167 395.867 156.969 396.647C155.77 397.427 155.429 399.034 156.207 400.235C156.985 401.437 158.587 401.779 159.785 400.999Z" fill="#00BF6F"/>
<path d="M226.868 355.797C227.767 355.212 228.022 354.007 227.439 353.106C226.856 352.205 225.655 351.948 224.756 352.533C223.857 353.118 223.602 354.323 224.185 355.224C224.768 356.125 225.969 356.381 226.868 355.797Z" fill="#00BF6F"/>
<path opacity="0.11" d="M1102.62 26.552C1103.82 25.772 1104.16 24.1654 1103.38 22.9635C1102.6 21.7616 1101 21.4196 1099.8 22.1995C1098.6 22.9795 1098.26 24.5862 1099.04 25.788C1099.82 26.9899 1101.42 27.332 1102.62 26.552Z" fill="#00BF6F"/>
<path d="M1117.41 33.9299C1118.31 33.345 1118.56 32.1404 1117.98 31.2393C1117.4 30.3381 1116.19 30.0816 1115.3 30.6664C1114.4 31.2513 1114.14 32.4559 1114.72 33.357C1115.31 34.2582 1116.51 34.5147 1117.41 33.9299Z" fill="#00BF6F"/>
<path d="M1044.81 45.612C1045.71 45.0272 1045.97 43.8226 1045.38 42.9214C1044.8 42.0202 1043.6 41.7638 1042.7 42.3486C1041.8 42.9334 1041.55 44.138 1042.13 45.0392C1042.71 45.9403 1043.91 46.1968 1044.81 45.612Z" fill="#00BF6F"/>
<path opacity="0.11" d="M1008.01 106.66C1009.21 105.88 1009.55 104.273 1008.77 103.071C1008 101.869 1006.39 101.527 1005.2 102.307C1004 103.087 1003.66 104.694 1004.43 105.896C1005.21 107.097 1006.81 107.44 1008.01 106.66Z" fill="#00BF6F"/>
<path d="M971.918 96.1433C972.517 95.7536 972.687 94.951 972.299 94.3506C971.91 93.7501 971.11 93.5793 970.511 93.9689C969.912 94.3586 969.742 95.1612 970.13 95.7616C970.519 96.362 971.319 96.533 971.918 96.1433Z" fill="#00BF6F"/>
<path d="M1126.81 71.0895C1127.4 70.6998 1127.57 69.8973 1127.19 69.2968C1126.8 68.6964 1126 68.5255 1125.4 68.9151C1124.8 69.3048 1124.63 70.1075 1125.02 70.7079C1125.41 71.3084 1126.21 71.4792 1126.81 71.0895Z" fill="#00BF6F"/>
<path d="M748.009 278.952C748.608 278.562 748.778 277.76 748.39 277.159C748.001 276.559 747.201 276.388 746.602 276.778C746.003 277.167 745.833 277.97 746.221 278.57C746.61 279.171 747.41 279.342 748.009 278.952Z" fill="#00BF6F"/>
<path opacity="0.11" d="M693.732 230.804C694.331 230.414 694.501 229.611 694.113 229.011C693.724 228.411 692.924 228.24 692.325 228.629C691.726 229.019 691.556 229.822 691.944 230.422C692.333 231.023 693.133 231.193 693.732 230.804Z" fill="#00BF6F"/>
<path opacity="0.11" d="M663.286 286.174C663.885 285.785 664.055 284.982 663.666 284.382C663.278 283.781 662.477 283.61 661.879 284C661.28 284.39 661.109 285.192 661.498 285.793C661.887 286.393 662.687 286.564 663.286 286.174Z" fill="#00BF6F"/>
<path opacity="0.11" d="M741.312 328.141C741.91 327.751 742.081 326.949 741.692 326.348C741.304 325.748 740.503 325.577 739.905 325.967C739.306 326.356 739.135 327.159 739.524 327.759C739.912 328.36 740.713 328.531 741.312 328.141Z" fill="#00BF6F"/>
<path opacity="0.11" d="M971.303 116.634C971.902 116.245 972.073 115.442 971.684 114.842C971.295 114.241 970.495 114.07 969.896 114.46C969.297 114.85 969.127 115.652 969.516 116.253C969.904 116.853 970.705 117.024 971.303 116.634Z" fill="#00BF6F"/>
<path opacity="0.11" d="M1149.98 111.662C1150.57 111.273 1150.75 110.47 1150.36 109.87C1149.97 109.269 1149.17 109.098 1148.57 109.488C1147.97 109.878 1147.8 110.68 1148.19 111.281C1148.58 111.881 1149.38 112.052 1149.98 111.662Z" fill="#00BF6F"/>
<path opacity="0.3" d="M780.307 219.286C780.906 218.896 781.076 218.093 780.688 217.493C780.299 216.893 779.499 216.722 778.9 217.111C778.301 217.501 778.131 218.304 778.52 218.904C778.908 219.504 779.708 219.675 780.307 219.286Z" fill="#00BF6F"/>
<path d="M982.776 146.275C983.375 145.885 983.545 145.083 983.157 144.482C982.768 143.882 981.968 143.711 981.369 144.1C980.77 144.49 980.6 145.293 980.988 145.893C981.377 146.494 982.177 146.665 982.776 146.275Z" fill="#00BF6F"/>
<path opacity="0.3" d="M906.848 195.684C907.447 195.294 907.617 194.492 907.228 193.891C906.84 193.291 906.039 193.12 905.441 193.509C904.842 193.899 904.671 194.702 905.06 195.302C905.449 195.903 906.249 196.073 906.848 195.684Z" fill="#00BF6F"/>
<path opacity="0.11" d="M774.271 186.121C774.87 185.732 775.04 184.929 774.652 184.329C774.263 183.728 773.463 183.557 772.864 183.947C772.265 184.337 772.095 185.139 772.483 185.74C772.872 186.34 773.672 186.511 774.271 186.121Z" fill="#00BF6F"/>
<path opacity="0.3" d="M1028.21 11.5981C1028.81 11.2085 1028.98 10.4059 1028.59 9.80543C1028.2 9.205 1027.4 9.03409 1026.8 9.42375C1026.2 9.81341 1026.03 10.6161 1026.42 11.2165C1026.81 11.817 1027.61 11.9878 1028.21 11.5981Z" fill="#00BF6F"/>
<path opacity="0.3" d="M1014.6 154.939C1015.2 154.55 1015.37 153.747 1014.98 153.147C1014.59 152.546 1013.79 152.375 1013.19 152.765C1012.59 153.155 1012.42 153.957 1012.81 154.558C1013.2 155.158 1014 155.329 1014.6 154.939Z" fill="#00BF6F"/>
<path opacity="0.3" d="M890.385 251.224C890.984 250.835 891.155 250.032 890.766 249.432C890.377 248.831 889.577 248.66 888.978 249.05C888.38 249.44 888.209 250.242 888.598 250.843C888.986 251.443 889.787 251.614 890.385 251.224Z" fill="#00BF6F"/>
<path opacity="0.3" d="M811.771 198.817C812.369 198.427 812.54 197.625 812.151 197.024C811.763 196.424 810.962 196.253 810.363 196.643C809.765 197.032 809.594 197.835 809.983 198.435C810.371 199.036 811.172 199.207 811.771 198.817Z" fill="#00BF6F"/>
<path opacity="0.3" d="M1217.21 10.7167C1218.41 9.93669 1218.75 8.33006 1217.97 7.12816C1217.19 5.92627 1215.59 5.58422 1214.39 6.3642C1213.19 7.14419 1212.85 8.75089 1213.63 9.95278C1214.41 11.1547 1216.01 11.4967 1217.21 10.7167Z" fill="#00BF6F"/>
<path d="M1234 61.6368C1234.9 61.0519 1235.15 59.8473 1234.57 58.9462C1233.99 58.045 1232.78 57.7885 1231.89 58.3734C1230.99 58.9582 1230.73 60.1628 1231.31 61.064C1231.9 61.9651 1233.1 62.2216 1234 61.6368Z" fill="#00BF6F"/>
<path d="M892.253 288.657C893.151 288.073 893.407 286.868 892.824 285.967C892.241 285.066 891.04 284.809 890.141 285.394C889.242 285.979 888.986 287.183 889.57 288.084C890.153 288.986 891.354 289.242 892.253 288.657Z" fill="#00BF6F"/>
<path d="M731.806 357.517C732.704 356.932 732.96 355.727 732.377 354.826C731.794 353.925 730.592 353.668 729.694 354.253C728.795 354.838 728.539 356.043 729.122 356.944C729.706 357.845 730.907 358.101 731.806 357.517Z" fill="#00BF6F"/>
<path d="M685.212 326.005C686.111 325.42 686.367 324.216 685.784 323.314C685.2 322.413 683.999 322.157 683.1 322.742C682.202 323.326 681.946 324.531 682.529 325.432C683.112 326.333 684.314 326.59 685.212 326.005Z" fill="#00BF6F"/>
<path d="M1060.3 157.662C1061.19 157.077 1061.45 155.872 1060.87 154.971C1060.28 154.07 1059.08 153.813 1058.18 154.398C1057.29 154.983 1057.03 156.188 1057.61 157.089C1058.2 157.99 1059.4 158.246 1060.3 157.662Z" fill="#00BF6F"/>
<path d="M1363.91 26.5599C1364.81 25.975 1365.06 24.7704 1364.48 23.8693C1363.9 22.9681 1362.69 22.7116 1361.8 23.2965C1360.9 23.8813 1360.64 25.0859 1361.22 25.987C1361.81 26.8882 1363.01 27.1447 1363.91 26.5599Z" fill="#00BF6F"/>
<path opacity="0.3" d="M842.831 268.251C844.029 267.472 844.37 265.865 843.593 264.663C842.815 263.461 841.213 263.119 840.014 263.899C838.815 264.679 838.474 266.286 839.252 267.488C840.03 268.689 841.632 269.031 842.831 268.251Z" fill="#00BF6F"/>
<path opacity="0.3" d="M716.25 265.611C717.449 264.831 717.79 263.225 717.012 262.023C716.234 260.821 714.632 260.479 713.433 261.259C712.235 262.039 711.894 263.645 712.672 264.847C713.449 266.049 715.052 266.391 716.25 265.611Z" fill="#00BF6F"/>
<path opacity="0.3" d="M847.423 127.695C848.621 126.915 848.962 125.309 848.184 124.107C847.407 122.905 845.804 122.563 844.606 123.343C843.407 124.123 843.066 125.729 843.844 126.931C844.622 128.133 846.224 128.475 847.423 127.695Z" fill="#00BF6F"/>
<path opacity="0.11" d="M804.069 124.997C805.268 124.217 805.609 122.61 804.831 121.409C804.053 120.207 802.451 119.865 801.252 120.645C800.054 121.425 799.713 123.031 800.49 124.233C801.268 125.435 802.87 125.777 804.069 124.997Z" fill="#00BF6F"/>
<path opacity="0.3" d="M840.44 200.251C841.639 199.471 841.98 197.865 841.202 196.663C840.424 195.461 838.822 195.119 837.623 195.899C836.425 196.679 836.084 198.286 836.861 199.487C837.639 200.689 839.242 201.031 840.44 200.251Z" fill="#00BF6F"/>
<path d="M907.527 155.052C908.426 154.467 908.681 153.262 908.098 152.361C907.515 151.46 906.314 151.203 905.415 151.788C904.516 152.373 904.26 153.578 904.844 154.479C905.427 155.38 906.628 155.636 907.527 155.052Z" fill="#00BF6F"/>
</g>
</g>
<g style="mix-blend-mode:plus-lighter" opacity="0.6">
<g opacity="0.7">
<path opacity="0.11" d="M1524.81 803.562C1526.01 802.782 1526.35 801.175 1525.58 799.973C1524.8 798.771 1523.2 798.429 1522 799.209C1520.8 799.989 1520.46 801.596 1521.24 802.798C1522.01 804 1523.62 804.342 1524.81 803.562Z" fill="#00BF6F"/>
<path d="M1539.58 810.936C1540.48 810.352 1540.74 809.147 1540.16 808.246C1539.57 807.345 1538.37 807.088 1537.47 807.673C1536.57 808.258 1536.32 809.462 1536.9 810.364C1537.48 811.265 1538.69 811.521 1539.58 810.936Z" fill="#00BF6F"/>
<path d="M1560.61 764.81C1561.51 764.226 1561.77 763.021 1561.19 762.12C1560.6 761.219 1559.4 760.962 1558.5 761.547C1557.6 762.132 1557.35 763.336 1557.93 764.238C1558.51 765.139 1559.72 765.395 1560.61 764.81Z" fill="#00BF6F"/>
<path d="M1467 822.627C1467.9 822.042 1468.16 820.837 1467.57 819.936C1466.99 819.035 1465.79 818.778 1464.89 819.363C1463.99 819.948 1463.74 821.153 1464.32 822.054C1464.9 822.955 1466.1 823.211 1467 822.627Z" fill="#00BF6F"/>
<path opacity="0.11" d="M1430.2 883.674C1431.4 882.894 1431.74 881.288 1430.96 880.086C1430.18 878.884 1428.58 878.542 1427.38 879.322C1426.18 880.102 1425.84 881.709 1426.62 882.91C1427.4 884.112 1429 884.454 1430.2 883.674Z" fill="#00BF6F"/>
<path d="M1394.11 873.15C1394.71 872.76 1394.88 871.958 1394.49 871.357C1394.11 870.757 1393.31 870.586 1392.71 870.976C1392.11 871.365 1391.94 872.168 1392.33 872.768C1392.71 873.369 1393.51 873.54 1394.11 873.15Z" fill="#00BF6F"/>
<path d="M1549 848.104C1549.6 847.715 1549.77 846.912 1549.38 846.312C1548.99 845.711 1548.19 845.54 1547.59 845.93C1546.99 846.32 1546.82 847.122 1547.21 847.723C1547.6 848.323 1548.4 848.494 1549 848.104Z" fill="#00BF6F"/>
<path d="M1785.47 694.228C1786.07 693.838 1786.24 693.035 1785.85 692.435C1785.47 691.834 1784.66 691.664 1784.07 692.053C1783.47 692.443 1783.3 693.246 1783.69 693.846C1784.07 694.446 1784.87 694.617 1785.47 694.228Z" fill="#00BF6F"/>
<path d="M1865.69 558.544C1866.28 558.154 1866.45 557.352 1866.07 556.751C1865.68 556.151 1864.88 555.98 1864.28 556.37C1863.68 556.759 1863.51 557.562 1863.9 558.162C1864.29 558.763 1865.09 558.934 1865.69 558.544Z" fill="#00BF6F"/>
<path d="M1170.2 1055.97C1170.8 1055.58 1170.97 1054.77 1170.58 1054.17C1170.19 1053.57 1169.39 1053.4 1168.79 1053.79C1168.19 1054.18 1168.02 1054.98 1168.41 1055.59C1168.8 1056.19 1169.6 1056.36 1170.2 1055.97Z" fill="#00BF6F"/>
<path opacity="0.11" d="M1115.92 1007.81C1116.52 1007.42 1116.69 1006.62 1116.3 1006.02C1115.91 1005.42 1115.11 1005.25 1114.51 1005.64C1113.91 1006.03 1113.74 1006.83 1114.13 1007.43C1114.52 1008.03 1115.32 1008.2 1115.92 1007.81Z" fill="#00BF6F"/>
<path opacity="0.11" d="M1085.48 1063.18C1086.08 1062.79 1086.25 1061.99 1085.86 1061.39C1085.47 1060.79 1084.67 1060.62 1084.07 1061.01C1083.47 1061.4 1083.3 1062.2 1083.69 1062.8C1084.08 1063.4 1084.88 1063.57 1085.48 1063.18Z" fill="#00BF6F"/>
<path opacity="0.11" d="M1163.51 1105.15C1164.11 1104.76 1164.28 1103.96 1163.89 1103.35C1163.5 1102.75 1162.7 1102.58 1162.1 1102.97C1161.5 1103.36 1161.33 1104.17 1161.72 1104.77C1162.11 1105.37 1162.91 1105.54 1163.51 1105.15Z" fill="#00BF6F"/>
<path opacity="0.11" d="M1393.49 893.649C1394.09 893.259 1394.26 892.457 1393.87 891.856C1393.49 891.256 1392.69 891.085 1392.09 891.475C1391.49 891.864 1391.32 892.667 1391.71 893.267C1392.1 893.868 1392.9 894.039 1393.49 893.649Z" fill="#00BF6F"/>
<path opacity="0.11" d="M1572.19 888.669C1572.78 888.279 1572.95 887.476 1572.57 886.876C1572.18 886.276 1571.38 886.105 1570.78 886.494C1570.18 886.884 1570.01 887.687 1570.4 888.287C1570.79 888.888 1571.59 889.058 1572.19 888.669Z" fill="#00BF6F"/>
<path opacity="0.11" d="M1773.4 742.268C1774 741.879 1774.17 741.076 1773.78 740.476C1773.39 739.875 1772.59 739.704 1771.99 740.094C1771.39 740.484 1771.22 741.286 1771.61 741.887C1772 742.487 1772.8 742.658 1773.4 742.268Z" fill="#00BF6F"/>
<path opacity="0.3" d="M1202.5 996.3C1203.1 995.911 1203.27 995.108 1202.88 994.508C1202.49 993.907 1201.69 993.736 1201.09 994.126C1200.49 994.516 1200.32 995.318 1200.71 995.919C1201.1 996.519 1201.9 996.69 1202.5 996.3Z" fill="#00BF6F"/>
<path d="M1413.97 775.214C1414.57 774.824 1414.74 774.022 1414.35 773.421C1413.96 772.821 1413.16 772.65 1412.56 773.04C1411.96 773.429 1411.79 774.232 1412.18 774.832C1412.57 775.433 1413.37 775.604 1413.97 775.214Z" fill="#00BF6F"/>
<path d="M1579.6 664.337C1580.2 663.947 1580.37 663.144 1579.98 662.544C1579.59 661.943 1578.79 661.773 1578.2 662.162C1577.6 662.552 1577.43 663.355 1577.81 663.955C1578.2 664.555 1579 664.726 1579.6 664.337Z" fill="#00BF6F"/>
<path d="M1404.97 923.281C1405.57 922.892 1405.74 922.089 1405.35 921.489C1404.96 920.888 1404.16 920.717 1403.56 921.107C1402.96 921.497 1402.79 922.299 1403.18 922.9C1403.57 923.5 1404.37 923.671 1404.97 923.281Z" fill="#00BF6F"/>
<path opacity="0.3" d="M1329.04 972.698C1329.64 972.309 1329.81 971.506 1329.42 970.906C1329.03 970.305 1328.23 970.134 1327.63 970.524C1327.03 970.914 1326.86 971.716 1327.25 972.317C1327.64 972.917 1328.44 973.088 1329.04 972.698Z" fill="#00BF6F"/>
<path opacity="0.11" d="M1196.46 963.136C1197.06 962.747 1197.23 961.944 1196.84 961.344C1196.45 960.743 1195.65 960.572 1195.05 960.962C1194.46 961.351 1194.29 962.154 1194.67 962.755C1195.06 963.355 1195.86 963.526 1196.46 963.136Z" fill="#00BF6F"/>
<path opacity="0.3" d="M1450.4 788.611C1450.99 788.222 1451.16 787.419 1450.78 786.819C1450.39 786.218 1449.59 786.047 1448.99 786.437C1448.39 786.827 1448.22 787.629 1448.61 788.23C1449 788.83 1449.8 789.001 1450.4 788.611Z" fill="#00BF6F"/>
<path opacity="0.3" d="M1436.79 931.954C1437.39 931.564 1437.56 930.762 1437.17 930.161C1436.78 929.561 1435.98 929.39 1435.38 929.78C1434.78 930.169 1434.61 930.972 1435 931.572C1435.39 932.173 1436.19 932.344 1436.79 931.954Z" fill="#00BF6F"/>
<path opacity="0.3" d="M1312.57 1028.24C1313.17 1027.85 1313.34 1027.05 1312.95 1026.44C1312.56 1025.84 1311.76 1025.67 1311.16 1026.06C1310.57 1026.45 1310.4 1027.26 1310.78 1027.86C1311.17 1028.46 1311.97 1028.63 1312.57 1028.24Z" fill="#00BF6F"/>
<path opacity="0.3" d="M1233.96 975.832C1234.56 975.442 1234.73 974.64 1234.34 974.039C1233.95 973.439 1233.15 973.268 1232.55 973.657C1231.96 974.047 1231.78 974.85 1232.17 975.45C1232.56 976.051 1233.36 976.221 1233.96 975.832Z" fill="#00BF6F"/>
<path opacity="0.3" d="M1906.52 533.521C1907.12 533.131 1907.29 532.329 1906.9 531.728C1906.51 531.128 1905.71 530.957 1905.11 531.346C1904.51 531.736 1904.34 532.539 1904.73 533.139C1905.12 533.74 1905.92 533.911 1906.52 533.521Z" fill="#00BF6F"/>
<path opacity="0.11" d="M1703.03 602.566C1703.62 602.177 1703.8 601.374 1703.41 600.774C1703.02 600.173 1702.22 600.002 1701.62 600.392C1701.02 600.782 1700.85 601.584 1701.24 602.185C1701.63 602.785 1702.43 602.956 1703.03 602.566Z" fill="#00BF6F"/>
<path opacity="0.11" d="M1907.51 599.348C1908.1 598.958 1908.27 598.156 1907.89 597.555C1907.5 596.955 1906.7 596.784 1906.1 597.174C1905.5 597.563 1905.33 598.366 1905.72 598.966C1906.11 599.567 1906.91 599.738 1907.51 599.348Z" fill="#00BF6F"/>
<path opacity="0.3" d="M1639.4 787.725C1640.6 786.945 1640.94 785.338 1640.16 784.137C1639.39 782.935 1637.78 782.592 1636.59 783.372C1635.39 784.152 1635.05 785.759 1635.82 786.961C1636.6 788.163 1638.2 788.505 1639.4 787.725Z" fill="#00BF6F"/>
<path opacity="0.11" d="M1682.29 713.447C1683.49 712.667 1683.83 711.06 1683.05 709.858C1682.28 708.657 1680.67 708.315 1679.48 709.095C1678.28 709.875 1677.94 711.481 1678.71 712.683C1679.49 713.885 1681.09 714.227 1682.29 713.447Z" fill="#00BF6F"/>
<path d="M1657.12 675.733C1658.01 675.148 1658.27 673.944 1657.69 673.042C1657.1 672.141 1655.9 671.885 1655 672.47C1654.1 673.054 1653.85 674.259 1654.43 675.16C1655.02 676.061 1656.22 676.318 1657.12 675.733Z" fill="#00BF6F"/>
<path d="M1656.19 838.643C1657.09 838.059 1657.34 836.854 1656.76 835.953C1656.18 835.052 1654.98 834.795 1654.08 835.38C1653.18 835.965 1652.92 837.169 1653.51 838.071C1654.09 838.972 1655.29 839.228 1656.19 838.643Z" fill="#00BF6F"/>
<path d="M1314.44 1065.67C1315.34 1065.08 1315.6 1063.88 1315.01 1062.98C1314.43 1062.08 1313.23 1061.82 1312.33 1062.4C1311.43 1062.99 1311.18 1064.19 1311.76 1065.09C1312.34 1066 1313.55 1066.25 1314.44 1065.67Z" fill="#00BF6F"/>
<path d="M1154 1134.53C1154.9 1133.95 1155.16 1132.74 1154.58 1131.84C1153.99 1130.94 1152.79 1130.68 1151.89 1131.27C1150.99 1131.85 1150.74 1133.06 1151.32 1133.96C1151.9 1134.86 1153.11 1135.12 1154 1134.53Z" fill="#00BF6F"/>
<path d="M1107.4 1103.02C1108.3 1102.43 1108.56 1101.23 1107.97 1100.33C1107.39 1099.43 1106.19 1099.17 1105.29 1099.76C1104.39 1100.34 1104.14 1101.55 1104.72 1102.45C1105.3 1103.35 1106.51 1103.6 1107.4 1103.02Z" fill="#00BF6F"/>
<path d="M1619.14 731.364C1620.04 730.779 1620.29 729.574 1619.71 728.673C1619.13 727.772 1617.93 727.515 1617.03 728.1C1616.13 728.685 1615.87 729.89 1616.46 730.791C1617.04 731.692 1618.24 731.948 1619.14 731.364Z" fill="#00BF6F"/>
<path d="M1482.49 934.676C1483.38 934.092 1483.64 932.887 1483.06 931.986C1482.47 931.085 1481.27 930.828 1480.37 931.413C1479.48 931.998 1479.22 933.202 1479.8 934.104C1480.39 935.005 1481.59 935.261 1482.49 934.676Z" fill="#00BF6F"/>
<path d="M1786.1 803.574C1787 802.99 1787.25 801.785 1786.67 800.884C1786.09 799.983 1784.89 799.726 1783.99 800.311C1783.09 800.896 1782.83 802.101 1783.42 803.002C1784 803.903 1785.2 804.159 1786.1 803.574Z" fill="#00BF6F"/>
<path opacity="0.3" d="M1747.31 618.583C1748.51 617.803 1748.85 616.197 1748.07 614.995C1747.29 613.793 1745.69 613.451 1744.49 614.231C1743.29 615.011 1742.95 616.617 1743.73 617.819C1744.51 619.021 1746.11 619.363 1747.31 618.583Z" fill="#00BF6F"/>
<path d="M1697.33 541.358C1698.53 540.578 1698.87 538.972 1698.09 537.77C1697.31 536.568 1695.71 536.226 1694.51 537.006C1693.31 537.786 1692.97 539.393 1693.75 540.594C1694.53 541.796 1696.13 542.138 1697.33 541.358Z" fill="#00BF6F"/>
<path d="M1818.66 606.159C1819.56 605.574 1819.81 604.37 1819.23 603.468C1818.65 602.567 1817.45 602.311 1816.55 602.896C1815.65 603.48 1815.39 604.685 1815.98 605.586C1816.56 606.487 1817.76 606.744 1818.66 606.159Z" fill="#00BF6F"/>
<path opacity="0.3" d="M1843.82 529.506C1845.02 528.726 1845.36 527.119 1844.58 525.918C1843.8 524.716 1842.2 524.374 1841 525.154C1839.8 525.934 1839.46 527.54 1840.24 528.742C1841.02 529.944 1842.62 530.286 1843.82 529.506Z" fill="#00BF6F"/>
<path opacity="0.3" d="M1875.67 621.611C1876.87 620.831 1877.21 619.224 1876.43 618.022C1875.65 616.82 1874.05 616.478 1872.85 617.258C1871.65 618.038 1871.31 619.645 1872.09 620.847C1872.87 622.049 1874.47 622.391 1875.67 621.611Z" fill="#00BF6F"/>
<path opacity="0.3" d="M1265.02 1045.27C1266.22 1044.49 1266.56 1042.88 1265.78 1041.68C1265 1040.48 1263.4 1040.13 1262.2 1040.91C1261 1041.69 1260.66 1043.3 1261.44 1044.5C1262.22 1045.7 1263.82 1046.05 1265.02 1045.27Z" fill="#00BF6F"/>
<path opacity="0.3" d="M1138.44 1042.63C1139.64 1041.85 1139.98 1040.24 1139.2 1039.04C1138.43 1037.84 1136.82 1037.49 1135.62 1038.27C1134.43 1039.05 1134.08 1040.66 1134.86 1041.86C1135.64 1043.06 1137.24 1043.41 1138.44 1042.63Z" fill="#00BF6F"/>
<path opacity="0.3" d="M1269.62 904.702C1270.82 903.922 1271.16 902.315 1270.39 901.113C1269.61 899.911 1268.01 899.569 1266.81 900.349C1265.61 901.129 1265.27 902.736 1266.05 903.938C1266.82 905.14 1268.43 905.482 1269.62 904.702Z" fill="#00BF6F"/>
<path opacity="0.11" d="M1226.26 902.004C1227.46 901.224 1227.8 899.617 1227.02 898.415C1226.24 897.213 1224.64 896.871 1223.44 897.651C1222.24 898.431 1221.9 900.038 1222.68 901.24C1223.46 902.442 1225.06 902.784 1226.26 902.004Z" fill="#00BF6F"/>
<path opacity="0.3" d="M1262.63 977.261C1263.82 976.481 1264.17 974.875 1263.39 973.673C1262.61 972.471 1261.01 972.129 1259.81 972.909C1258.61 973.689 1258.27 975.295 1259.05 976.497C1259.83 977.699 1261.43 978.041 1262.63 977.261Z" fill="#00BF6F"/>
<path d="M1329.72 932.063C1330.62 931.478 1330.87 930.274 1330.29 929.373C1329.71 928.471 1328.5 928.215 1327.61 928.8C1326.71 929.385 1326.45 930.589 1327.03 931.49C1327.62 932.392 1328.82 932.648 1329.72 932.063Z" fill="#00BF6F"/>
<path opacity="0.11" d="M1684.95 227.292C1686.15 226.512 1686.49 224.905 1685.72 223.703C1684.94 222.502 1683.34 222.159 1682.14 222.939C1680.94 223.719 1680.6 225.326 1681.38 226.528C1682.15 227.73 1683.76 228.072 1684.95 227.292Z" fill="#00BF6F"/>
<path d="M1699.75 234.675C1700.65 234.09 1700.9 232.885 1700.32 231.984C1699.74 231.083 1698.53 230.826 1697.64 231.411C1696.74 231.996 1696.48 233.201 1697.06 234.102C1697.65 235.003 1698.85 235.259 1699.75 234.675Z" fill="#00BF6F"/>
<path d="M1720.77 188.54C1721.67 187.955 1721.92 186.751 1721.34 185.85C1720.76 184.949 1719.56 184.692 1718.66 185.277C1717.76 185.862 1717.5 187.066 1718.09 187.968C1718.67 188.869 1719.87 189.125 1720.77 188.54Z" fill="#00BF6F"/>
<path d="M1627.16 246.36C1628.05 245.775 1628.31 244.57 1627.73 243.669C1627.14 242.768 1625.94 242.512 1625.04 243.096C1624.15 243.681 1623.89 244.886 1624.47 245.787C1625.06 246.688 1626.26 246.945 1627.16 246.36Z" fill="#00BF6F"/>
<path opacity="0.11" d="M1590.36 307.408C1591.55 306.628 1591.89 305.021 1591.12 303.819C1590.34 302.617 1588.74 302.275 1587.54 303.055C1586.34 303.835 1586 305.442 1586.78 306.644C1587.55 307.846 1589.16 308.188 1590.36 307.408Z" fill="#00BF6F"/>
<path d="M1554.26 296.888C1554.86 296.498 1555.03 295.696 1554.64 295.095C1554.25 294.495 1553.45 294.324 1552.85 294.714C1552.25 295.103 1552.08 295.906 1552.47 296.506C1552.86 297.107 1553.66 297.278 1554.26 296.888Z" fill="#00BF6F"/>
<path d="M1709.15 271.837C1709.75 271.448 1709.92 270.645 1709.53 270.045C1709.14 269.444 1708.34 269.273 1707.74 269.663C1707.14 270.053 1706.97 270.855 1707.36 271.456C1707.75 272.056 1708.55 272.227 1709.15 271.837Z" fill="#00BF6F"/>
<path d="M1330.34 479.697C1330.94 479.307 1331.11 478.505 1330.72 477.904C1330.33 477.304 1329.53 477.133 1328.94 477.522C1328.34 477.912 1328.17 478.715 1328.56 479.315C1328.94 479.916 1329.74 480.086 1330.34 479.697Z" fill="#00BF6F"/>
<path opacity="0.11" d="M1276.07 431.548C1276.67 431.159 1276.84 430.356 1276.45 429.756C1276.07 429.155 1275.26 428.984 1274.67 429.374C1274.07 429.764 1273.9 430.566 1274.29 431.167C1274.67 431.767 1275.47 431.938 1276.07 431.548Z" fill="#00BF6F"/>
<path opacity="0.11" d="M1245.63 486.919C1246.22 486.529 1246.39 485.727 1246.01 485.126C1245.62 484.526 1244.82 484.355 1244.22 484.744C1243.62 485.134 1243.45 485.937 1243.84 486.537C1244.23 487.138 1245.03 487.308 1245.63 486.919Z" fill="#00BF6F"/>
<path opacity="0.11" d="M1323.65 528.886C1324.25 528.496 1324.42 527.694 1324.03 527.093C1323.64 526.493 1322.84 526.322 1322.25 526.712C1321.65 527.101 1321.48 527.904 1321.86 528.504C1322.25 529.105 1323.05 529.276 1323.65 528.886Z" fill="#00BF6F"/>
<path opacity="0.11" d="M1553.64 317.376C1554.24 316.986 1554.41 316.184 1554.02 315.583C1553.63 314.983 1552.83 314.812 1552.23 315.202C1551.63 315.591 1551.46 316.394 1551.85 316.994C1552.24 317.595 1553.04 317.766 1553.64 317.376Z" fill="#00BF6F"/>
<path opacity="0.11" d="M1732.33 312.407C1732.93 312.017 1733.1 311.215 1732.71 310.614C1732.33 310.014 1731.53 309.843 1730.93 310.232C1730.33 310.622 1730.16 311.425 1730.55 312.025C1730.93 312.626 1731.74 312.796 1732.33 312.407Z" fill="#00BF6F"/>
<path opacity="0.3" d="M1362.65 420.03C1363.25 419.641 1363.42 418.838 1363.03 418.238C1362.64 417.637 1361.84 417.466 1361.24 417.856C1360.64 418.246 1360.47 419.048 1360.86 419.649C1361.25 420.249 1362.05 420.42 1362.65 420.03Z" fill="#00BF6F"/>
<path d="M1574.11 198.947C1574.71 198.558 1574.88 197.755 1574.5 197.154C1574.11 196.554 1573.31 196.383 1572.71 196.773C1572.11 197.162 1571.94 197.965 1572.33 198.566C1572.72 199.166 1573.52 199.337 1574.11 198.947Z" fill="#00BF6F"/>
<path d="M1739.75 88.0747C1740.34 87.6851 1740.51 86.8824 1740.13 86.282C1739.74 85.6816 1738.94 85.5107 1738.34 85.9003C1737.74 86.29 1737.57 87.0927 1737.96 87.6931C1738.35 88.2935 1739.15 88.4644 1739.75 88.0747Z" fill="#00BF6F"/>
<path d="M1565.12 347.018C1565.72 346.628 1565.89 345.826 1565.5 345.225C1565.11 344.625 1564.31 344.454 1563.71 344.844C1563.11 345.233 1562.94 346.036 1563.33 346.636C1563.72 347.237 1564.52 347.408 1565.12 347.018Z" fill="#00BF6F"/>
<path opacity="0.3" d="M1489.18 396.427C1489.78 396.037 1489.95 395.235 1489.56 394.634C1489.17 394.034 1488.37 393.863 1487.77 394.252C1487.18 394.642 1487.01 395.445 1487.39 396.045C1487.78 396.646 1488.58 396.816 1489.18 396.427Z" fill="#00BF6F"/>
<path opacity="0.11" d="M1356.61 386.873C1357.21 386.483 1357.38 385.68 1356.99 385.08C1356.6 384.48 1355.8 384.309 1355.2 384.698C1354.61 385.088 1354.44 385.891 1354.82 386.491C1355.21 387.092 1356.01 387.262 1356.61 386.873Z" fill="#00BF6F"/>
<path opacity="0.3" d="M1610.54 212.349C1611.14 211.96 1611.31 211.157 1610.92 210.557C1610.53 209.956 1609.73 209.785 1609.13 210.175C1608.53 210.565 1608.36 211.367 1608.75 211.968C1609.14 212.568 1609.94 212.739 1610.54 212.349Z" fill="#00BF6F"/>
<path opacity="0.3" d="M1596.94 355.684C1597.54 355.294 1597.71 354.492 1597.32 353.891C1596.93 353.291 1596.13 353.12 1595.53 353.51C1594.93 353.899 1594.76 354.702 1595.15 355.302C1595.54 355.903 1596.34 356.074 1596.94 355.684Z" fill="#00BF6F"/>
<path opacity="0.3" d="M1472.73 451.972C1473.33 451.583 1473.5 450.78 1473.11 450.179C1472.72 449.579 1471.92 449.408 1471.32 449.798C1470.72 450.188 1470.55 450.99 1470.94 451.591C1471.33 452.191 1472.13 452.362 1472.73 451.972Z" fill="#00BF6F"/>
<path opacity="0.3" d="M1394.11 399.565C1394.71 399.175 1394.88 398.373 1394.49 397.772C1394.11 397.172 1393.31 397.001 1392.71 397.391C1392.11 397.78 1391.94 398.583 1392.33 399.183C1392.71 399.784 1393.51 399.955 1394.11 399.565Z" fill="#00BF6F"/>
<path opacity="0.11" d="M1863.17 26.2996C1863.77 25.9099 1863.94 25.1073 1863.55 24.5068C1863.16 23.9064 1862.36 23.7355 1861.76 24.1252C1861.16 24.5149 1860.99 25.3175 1861.38 25.9179C1861.77 26.5184 1862.57 26.6892 1863.17 26.2996Z" fill="#00BF6F"/>
<path opacity="0.3" d="M1799.56 211.458C1800.76 210.678 1801.1 209.072 1800.32 207.87C1799.54 206.668 1797.94 206.326 1796.74 207.106C1795.54 207.886 1795.2 209.492 1795.98 210.694C1796.76 211.896 1798.36 212.238 1799.56 211.458Z" fill="#00BF6F"/>
<path opacity="0.11" d="M1842.44 137.185C1843.64 136.405 1843.98 134.798 1843.2 133.597C1842.42 132.395 1840.82 132.053 1839.62 132.833C1838.43 133.613 1838.08 135.219 1838.86 136.421C1839.64 137.623 1841.24 137.965 1842.44 137.185Z" fill="#00BF6F"/>
<path d="M1817.27 99.4614C1818.17 98.8766 1818.42 97.672 1817.84 96.7708C1817.26 95.8696 1816.06 95.6132 1815.16 96.198C1814.26 96.7829 1814 97.9875 1814.59 98.8887C1815.17 99.7898 1816.37 100.046 1817.27 99.4614Z" fill="#00BF6F"/>
<path d="M1816.34 262.376C1817.24 261.792 1817.49 260.587 1816.91 259.686C1816.33 258.785 1815.13 258.528 1814.23 259.113C1813.33 259.698 1813.07 260.902 1813.66 261.804C1814.24 262.705 1815.44 262.961 1816.34 262.376Z" fill="#00BF6F"/>
<path d="M1474.59 489.397C1475.49 488.812 1475.74 487.608 1475.16 486.707C1474.58 485.805 1473.38 485.549 1472.48 486.134C1471.58 486.719 1471.32 487.923 1471.91 488.824C1472.49 489.726 1473.69 489.982 1474.59 489.397Z" fill="#00BF6F"/>
<path d="M1314.15 558.261C1315.05 557.677 1315.3 556.472 1314.72 555.571C1314.13 554.67 1312.93 554.413 1312.03 554.998C1311.14 555.583 1310.88 556.788 1311.46 557.689C1312.05 558.59 1313.25 558.846 1314.15 558.261Z" fill="#00BF6F"/>
<path d="M1267.55 526.75C1268.45 526.165 1268.7 524.96 1268.12 524.059C1267.53 523.158 1266.33 522.901 1265.43 523.486C1264.54 524.071 1264.28 525.276 1264.86 526.177C1265.45 527.078 1266.65 527.334 1267.55 526.75Z" fill="#00BF6F"/>
<path d="M1779.29 155.098C1780.19 154.514 1780.44 153.309 1779.86 152.408C1779.28 151.507 1778.07 151.25 1777.18 151.835C1776.28 152.42 1776.02 153.624 1776.6 154.526C1777.19 155.427 1778.39 155.683 1779.29 155.098Z" fill="#00BF6F"/>
<path d="M1642.64 358.406C1643.54 357.821 1643.79 356.617 1643.21 355.716C1642.63 354.814 1641.43 354.558 1640.53 355.143C1639.63 355.727 1639.37 356.932 1639.96 357.833C1640.54 358.734 1641.74 358.991 1642.64 358.406Z" fill="#00BF6F"/>
<path opacity="0.3" d="M1907.46 42.3133C1908.66 41.5333 1909 39.9267 1908.22 38.7248C1907.44 37.5229 1905.84 37.1809 1904.64 37.9609C1903.44 38.7409 1903.1 40.3475 1903.88 41.5494C1904.66 42.7513 1906.26 43.0933 1907.46 42.3133Z" fill="#00BF6F"/>
<path opacity="0.3" d="M1425.17 469.004C1426.37 468.224 1426.71 466.617 1425.94 465.416C1425.16 464.214 1423.56 463.872 1422.36 464.652C1421.16 465.432 1420.82 467.038 1421.6 468.24C1422.37 469.442 1423.98 469.784 1425.17 469.004Z" fill="#00BF6F"/>
<path opacity="0.3" d="M1298.58 466.359C1299.78 465.579 1300.12 463.972 1299.34 462.771C1298.56 461.569 1296.96 461.227 1295.76 462.007C1294.56 462.787 1294.22 464.393 1295 465.595C1295.78 466.797 1297.38 467.139 1298.58 466.359Z" fill="#00BF6F"/>
<path opacity="0.3" d="M1429.76 328.435C1430.96 327.655 1431.3 326.048 1430.53 324.846C1429.75 323.645 1428.15 323.303 1426.95 324.083C1425.75 324.863 1425.41 326.469 1426.19 327.671C1426.96 328.873 1428.57 329.215 1429.76 328.435Z" fill="#00BF6F"/>
<path opacity="0.11" d="M1386.4 325.742C1387.6 324.962 1387.94 323.355 1387.16 322.153C1386.38 320.951 1384.78 320.609 1383.58 321.389C1382.38 322.169 1382.04 323.776 1382.82 324.978C1383.6 326.18 1385.2 326.522 1386.4 325.742Z" fill="#00BF6F"/>
<path opacity="0.3" d="M1422.79 400.999C1423.98 400.219 1424.33 398.613 1423.55 397.411C1422.77 396.209 1421.17 395.867 1419.97 396.647C1418.77 397.427 1418.43 399.034 1419.21 400.235C1419.98 401.437 1421.59 401.779 1422.79 400.999Z" fill="#00BF6F"/>
<path d="M1489.87 355.797C1490.77 355.212 1491.02 354.007 1490.44 353.106C1489.86 352.205 1488.65 351.948 1487.76 352.533C1486.86 353.118 1486.6 354.323 1487.18 355.224C1487.77 356.125 1488.97 356.381 1489.87 355.797Z" fill="#00BF6F"/>
</g>
</g>
</svg>
